M48
;Layer_Color=9474304
;FILE_FORMAT=4:4
METRIC,LZ
;TYPE=PLATED
T02F00S00C0.7112
T03F00S00C0.7620
T04F00S00C0.8500
T05F00S00C0.9000
T06F00S00C1.0000
%
T02
X0061595Y0034036
X0072771Y0037338
X0086614Y0029718
X0102235Y0035941
X00729739Y0086614
T03
X0070866Y0028194
X0073406
X0075946
X0078486
X0081026
X0083566
X0110617
X0113157
X0115697
X0118237
X0120777
X0123317
Y0043434
X0120777
X0118237
X0115697
X0113157
X0110617
X0083566
X0081026
X0078486
X0075946
X0073406
X0070866
T04
X0122301Y0077343
X01151636
X01080262
X010922Y0073152
X0104394Y0073279
X0098679Y0073025
X01008888Y0077343
X00937514
X0086614
X0079756Y0072517
Y0062357
X0098679Y0062865
X0104394Y0063119
X010922Y0062992
X0073533Y006223
X0066802Y0061976
Y0072136
X0073533Y007239
X0086614Y0087503
X00937514
X01008888
X01080262
X01151636
X0122301
T05
X0045212Y0027686
Y0030226
Y0032766
Y0035306
Y0037846
X0052832
Y0035306
Y0032766
Y0030226
Y0027686
X0122174Y0046489
Y0049089
Y0051689
X0117348Y0051749
Y0049149
Y0046549
X0113792Y0046422
Y0049022
Y0051622
X0083947Y0052197
Y0049597
Y0054797
X0078105
Y0052197
Y0049597
X0070866
Y0052197
Y0054797
X0052832Y0055626
Y0053086
Y0050546
Y0048006
Y0045466
Y0042926
Y0040386
X0045212
Y0042926
Y0045466
Y0048006
Y0050546
Y0053086
Y0055626
Y0058166
Y0060706
X0052832
Y0058166
T06
X0047784Y0078534
X0051784
X0058325
X0062325
Y0084534
X0058325
X0051784
X0047784
M30
