G04*
G04 #@! TF.GenerationSoftware,Altium Limited,Altium Designer,24.10.1 (45)*
G04*
G04 Layer_Physical_Order=2*
G04 Layer_Color=16711680*
%FSLAX44Y44*%
%MOMM*%
G71*
G04*
G04 #@! TF.SameCoordinates,C5BE6EB9-D647-4441-8654-D56C766D6CB2*
G04*
G04*
G04 #@! TF.FilePolarity,Positive*
G04*
G01*
G75*
G04:AMPARAMS|DCode=19|XSize=1.1mm|YSize=1.7mm|CornerRadius=0.55mm|HoleSize=0mm|Usage=FLASHONLY|Rotation=180.000|XOffset=0mm|YOffset=0mm|HoleType=Round|Shape=RoundedRectangle|*
%AMROUNDEDRECTD19*
21,1,1.1000,0.6000,0,0,180.0*
21,1,0.0000,1.7000,0,0,180.0*
1,1,1.1000,0.0000,0.3000*
1,1,1.1000,0.0000,0.3000*
1,1,1.1000,0.0000,-0.3000*
1,1,1.1000,0.0000,-0.3000*
%
%ADD19ROUNDEDRECTD19*%
%ADD26C,0.4000*%
%ADD27C,1.5240*%
%ADD28C,2.0000*%
%ADD29C,1.5000*%
%ADD30R,1.5000X1.5000*%
%ADD31C,1.4000*%
%ADD32R,1.4000X1.4000*%
%ADD33C,1.2700*%
G36*
X1371600Y259080D02*
X1149258D01*
X1147727Y262775D01*
X1155307Y270356D01*
X1155440Y270320D01*
X1158500D01*
X1161455Y271112D01*
X1164105Y272642D01*
X1166268Y274805D01*
X1167527Y276985D01*
X1169670Y277258D01*
X1171813Y276985D01*
X1173072Y274805D01*
X1175235Y272642D01*
X1177885Y271112D01*
X1180840Y270320D01*
X1183900D01*
X1186855Y271112D01*
X1189505Y272642D01*
X1191668Y274805D01*
X1192927Y276985D01*
X1195070Y277258D01*
X1197213Y276985D01*
X1198472Y274805D01*
X1200635Y272642D01*
X1203285Y271112D01*
X1206240Y270320D01*
X1209300D01*
X1212255Y271112D01*
X1214905Y272642D01*
X1217068Y274805D01*
X1218327Y276985D01*
X1220470Y277258D01*
X1222613Y276985D01*
X1223872Y274805D01*
X1226035Y272642D01*
X1228685Y271112D01*
X1231640Y270320D01*
X1234700D01*
X1237655Y271112D01*
X1240305Y272642D01*
X1242468Y274805D01*
X1243998Y277455D01*
X1244790Y280410D01*
Y283470D01*
X1243998Y286425D01*
X1242468Y289075D01*
X1240305Y291238D01*
X1237655Y292768D01*
X1234700Y293560D01*
X1231640D01*
X1228685Y292768D01*
X1226035Y291238D01*
X1223872Y289075D01*
X1222613Y286895D01*
X1220470Y286622D01*
X1218327Y286895D01*
X1217068Y289075D01*
X1214905Y291238D01*
X1212255Y292768D01*
X1209300Y293560D01*
X1206240D01*
X1203285Y292768D01*
X1200635Y291238D01*
X1198472Y289075D01*
X1197213Y286895D01*
X1195070Y286622D01*
X1192927Y286895D01*
X1191668Y289075D01*
X1189505Y291238D01*
X1186855Y292768D01*
X1183900Y293560D01*
X1180840D01*
X1179706Y293256D01*
X1171456Y301506D01*
X1169471Y302832D01*
X1167130Y303298D01*
X1127760D01*
X1125419Y302832D01*
X1123434Y301506D01*
X1114544Y292616D01*
X1114375Y292363D01*
X1113305Y291238D01*
X1110655Y292768D01*
X1107700Y293560D01*
X1104640D01*
X1101685Y292768D01*
X1099035Y291238D01*
X1096872Y289075D01*
X1095551Y286787D01*
X925325D01*
X903364Y308748D01*
X903767Y310545D01*
X905117Y312652D01*
X1217930D01*
X1220271Y313118D01*
X1222256Y314444D01*
X1237496Y329684D01*
X1238822Y331669D01*
X1239287Y334010D01*
Y424454D01*
X1240305Y425042D01*
X1242468Y427205D01*
X1243998Y429855D01*
X1244790Y432810D01*
Y435870D01*
X1243998Y438825D01*
X1242468Y441475D01*
X1240305Y443638D01*
X1237655Y445168D01*
X1234700Y445960D01*
X1231640D01*
X1228685Y445168D01*
X1226035Y443638D01*
X1223872Y441475D01*
X1222613Y439295D01*
X1220470Y439022D01*
X1218327Y439295D01*
X1217068Y441475D01*
X1214905Y443638D01*
X1212255Y445168D01*
X1209300Y445960D01*
X1206240D01*
X1203285Y445168D01*
X1200635Y443638D01*
X1198472Y441475D01*
X1197213Y439295D01*
X1195070Y439022D01*
X1192927Y439295D01*
X1191668Y441475D01*
X1189505Y443638D01*
X1186855Y445168D01*
X1183900Y445960D01*
X1180840D01*
X1177885Y445168D01*
X1175235Y443638D01*
X1173072Y441475D01*
X1171813Y439295D01*
X1169670Y439022D01*
X1167527Y439295D01*
X1166268Y441475D01*
X1164105Y443638D01*
X1161455Y445168D01*
X1158500Y445960D01*
X1155440D01*
X1153304Y445388D01*
X1149310Y449381D01*
X1148920Y453220D01*
X1148920Y454932D01*
Y475220D01*
X1139540D01*
X1139470Y475262D01*
X1139360Y475845D01*
X1141457Y479780D01*
X1142166Y479970D01*
X1144674Y481418D01*
X1146722Y483466D01*
X1148170Y485974D01*
X1148920Y488772D01*
Y491668D01*
X1148170Y494466D01*
X1146722Y496974D01*
X1144674Y499022D01*
X1142166Y500470D01*
X1139368Y501220D01*
X1136472D01*
X1134499Y503220D01*
X1135822Y504561D01*
X1137241Y505220D01*
X1139368D01*
X1142166Y505970D01*
X1144674Y507418D01*
X1146722Y509466D01*
X1148170Y511974D01*
X1148920Y514772D01*
Y517668D01*
X1148170Y520466D01*
X1146722Y522974D01*
X1144674Y525022D01*
X1142166Y526470D01*
X1139368Y527220D01*
X1136472D01*
X1134068Y526576D01*
X1133304Y526731D01*
X1130068Y529007D01*
Y729742D01*
X1129602Y732083D01*
X1128276Y734068D01*
X1091072Y771272D01*
X1091262Y771982D01*
Y774878D01*
X1090512Y777676D01*
X1089064Y780184D01*
X1087016Y782232D01*
X1084508Y783680D01*
X1081710Y784430D01*
X1078814D01*
X1076016Y783680D01*
X1073508Y782232D01*
X1071460Y780184D01*
X1070012Y777676D01*
X1069262Y774878D01*
Y771982D01*
X1070012Y769184D01*
X1071460Y766676D01*
X1073508Y764628D01*
X1076016Y763180D01*
X1078814Y762430D01*
X1081710D01*
X1082420Y762620D01*
X1117832Y727208D01*
Y478190D01*
X1118298Y475849D01*
X1119624Y473864D01*
X1126920Y466568D01*
X1126920Y453220D01*
X1123170Y452617D01*
X771620D01*
X769279Y452152D01*
X767294Y450826D01*
X762124Y445656D01*
X760990Y445960D01*
X757930D01*
X754975Y445168D01*
X752325Y443638D01*
X750162Y441475D01*
X748903Y439295D01*
X746760Y439022D01*
X744617Y439295D01*
X743358Y441475D01*
X741195Y443638D01*
X738545Y445168D01*
X735590Y445960D01*
X732530D01*
X729575Y445168D01*
X726925Y443638D01*
X724762Y441475D01*
X723503Y439295D01*
X721360Y439022D01*
X719217Y439295D01*
X717958Y441475D01*
X715795Y443638D01*
X713145Y445168D01*
X710190Y445960D01*
X707130D01*
X704175Y445168D01*
X701525Y443638D01*
X699362Y441475D01*
X697832Y438825D01*
X697040Y435870D01*
Y432810D01*
X697832Y429855D01*
X699362Y427205D01*
X701525Y425042D01*
X704175Y423512D01*
X707130Y422720D01*
X710190D01*
X713145Y423512D01*
X715795Y425042D01*
X717958Y427205D01*
X719217Y429385D01*
X721360Y429658D01*
X723503Y429385D01*
X724762Y427205D01*
X726925Y425042D01*
X729575Y423512D01*
X732530Y422720D01*
X733532D01*
X735189Y418720D01*
X662946Y346478D01*
X624369D01*
X624232Y346715D01*
X622305Y348642D01*
X619945Y350005D01*
X617313Y350710D01*
X614587D01*
X611955Y350005D01*
X609595Y348642D01*
X607668Y346715D01*
X606305Y344355D01*
X605600Y341723D01*
Y338997D01*
X606305Y336365D01*
X607668Y334005D01*
X609595Y332078D01*
X611955Y330715D01*
X614587Y330010D01*
X617313D01*
X619945Y330715D01*
X622305Y332078D01*
X624232Y334005D01*
X624369Y334243D01*
X665480D01*
X667821Y334708D01*
X669806Y336034D01*
X756796Y423024D01*
X757930Y422720D01*
X760990D01*
X763945Y423512D01*
X766595Y425042D01*
X768758Y427205D01*
X770017Y429385D01*
X772160Y429658D01*
X774303Y429385D01*
X775562Y427205D01*
X777725Y425042D01*
X780375Y423512D01*
X783330Y422720D01*
X786390D01*
X789345Y423512D01*
X791995Y425042D01*
X794158Y427205D01*
X795417Y429385D01*
X797560Y429658D01*
X799703Y429385D01*
X800962Y427205D01*
X803125Y425042D01*
X805775Y423512D01*
X808730Y422720D01*
X809732D01*
X811388Y418720D01*
X772166Y379497D01*
X736129D01*
X735992Y379735D01*
X734065Y381662D01*
X731705Y383025D01*
X729073Y383730D01*
X726347D01*
X723715Y383025D01*
X721355Y381662D01*
X719428Y379735D01*
X718065Y377375D01*
X717360Y374743D01*
Y372017D01*
X718065Y369385D01*
X719428Y367025D01*
X721355Y365098D01*
X723715Y363735D01*
X726347Y363030D01*
X729073D01*
X731705Y363735D01*
X734065Y365098D01*
X735992Y367025D01*
X736129Y367262D01*
X774700D01*
X777041Y367728D01*
X779026Y369054D01*
X825847Y415875D01*
X829542Y414345D01*
Y335280D01*
X830008Y332939D01*
X831334Y330954D01*
X839751Y322537D01*
X839427Y320601D01*
X838303Y318538D01*
X739140D01*
X736799Y318072D01*
X734814Y316746D01*
X711324Y293256D01*
X710190Y293560D01*
X707130D01*
X704175Y292768D01*
X701525Y291238D01*
X699362Y289075D01*
X697832Y286425D01*
X697040Y283470D01*
Y280410D01*
X697832Y277455D01*
X699362Y274805D01*
X701525Y272642D01*
X704175Y271112D01*
X707130Y270320D01*
X710190D01*
X713145Y271112D01*
X715795Y272642D01*
X717958Y274805D01*
X719217Y276985D01*
X721360Y277258D01*
X723503Y276985D01*
X724762Y274805D01*
X726925Y272642D01*
X729575Y271112D01*
X732530Y270320D01*
X735590D01*
X738545Y271112D01*
X741195Y272642D01*
X743358Y274805D01*
X744617Y276985D01*
X746760Y277258D01*
X748903Y276985D01*
X750162Y274805D01*
X752325Y272642D01*
X754975Y271112D01*
X757930Y270320D01*
X760990D01*
X762124Y270624D01*
X769973Y262775D01*
X768442Y259080D01*
X419100D01*
Y890270D01*
X682491D01*
X683287Y886270D01*
X682259Y885844D01*
X680275Y884321D01*
X678752Y882337D01*
X677795Y880026D01*
X677468Y877546D01*
Y871546D01*
X677795Y869066D01*
X678752Y866755D01*
X680275Y864771D01*
X682259Y863248D01*
X684570Y862291D01*
X687050Y861964D01*
X689530Y862291D01*
X691841Y863248D01*
X693826Y864771D01*
X695348Y866755D01*
X696305Y869066D01*
X696632Y871546D01*
Y877546D01*
X696305Y880026D01*
X695348Y882337D01*
X693826Y884321D01*
X691841Y885844D01*
X690813Y886270D01*
X691609Y890270D01*
X768891D01*
X769687Y886270D01*
X768659Y885844D01*
X766674Y884321D01*
X765152Y882337D01*
X764194Y880026D01*
X763868Y877546D01*
Y871546D01*
X764194Y869066D01*
X765152Y866755D01*
X766674Y864771D01*
X768659Y863248D01*
X770970Y862291D01*
X773450Y861964D01*
X775930Y862291D01*
X778241Y863248D01*
X780225Y864771D01*
X781748Y866755D01*
X782705Y869066D01*
X783032Y871546D01*
Y877546D01*
X782705Y880026D01*
X781748Y882337D01*
X780225Y884321D01*
X778241Y885844D01*
X777213Y886270D01*
X778009Y890270D01*
X1371600D01*
Y259080D01*
D02*
G37*
G36*
X1094687Y436382D02*
X1094550Y435870D01*
Y432810D01*
X1095342Y429855D01*
X1096872Y427205D01*
X1099035Y425042D01*
X1101685Y423512D01*
X1104640Y422720D01*
X1106912D01*
X1108203Y420796D01*
X1108708Y418860D01*
X1055376Y365527D01*
X1030769D01*
X1030632Y365765D01*
X1028705Y367692D01*
X1026345Y369055D01*
X1023713Y369760D01*
X1020987D01*
X1018355Y369055D01*
X1015995Y367692D01*
X1014068Y365765D01*
X1012705Y363405D01*
X1012000Y360773D01*
Y358047D01*
X1012705Y355415D01*
X1014068Y353055D01*
X1015995Y351128D01*
X1018355Y349765D01*
X1020987Y349060D01*
X1023713D01*
X1026345Y349765D01*
X1028705Y351128D01*
X1030632Y353055D01*
X1030769Y353293D01*
X1057910D01*
X1060251Y353758D01*
X1062236Y355084D01*
X1129907Y422756D01*
X1130040Y422720D01*
X1133100D01*
X1136055Y423512D01*
X1138705Y425042D01*
X1140868Y427205D01*
X1142127Y429385D01*
X1144270Y429658D01*
X1146413Y429385D01*
X1147672Y427205D01*
X1149835Y425042D01*
X1152485Y423512D01*
X1155440Y422720D01*
X1158500D01*
X1161455Y423512D01*
X1164105Y425042D01*
X1166268Y427205D01*
X1167527Y429385D01*
X1169670Y429658D01*
X1171813Y429385D01*
X1173072Y427205D01*
X1175235Y425042D01*
X1177885Y423512D01*
X1180840Y422720D01*
X1183900D01*
X1186855Y423512D01*
X1189505Y425042D01*
X1191668Y427205D01*
X1192927Y429385D01*
X1195070Y429658D01*
X1197213Y429385D01*
X1198472Y427205D01*
X1200635Y425042D01*
X1203285Y423512D01*
X1206240Y422720D01*
X1209300D01*
X1212255Y423512D01*
X1214905Y425042D01*
X1217068Y427205D01*
X1218327Y429385D01*
X1220470Y429658D01*
X1222613Y429385D01*
X1223872Y427205D01*
X1226035Y425042D01*
X1227053Y424454D01*
Y336544D01*
X1215396Y324888D01*
X906774D01*
X900946Y330716D01*
X898961Y332042D01*
X896620Y332508D01*
X847084D01*
X841777Y337814D01*
Y424454D01*
X842795Y425042D01*
X844958Y427205D01*
X846488Y429855D01*
X847280Y432810D01*
Y435870D01*
X847143Y436382D01*
X849951Y440382D01*
X1091879D01*
X1094687Y436382D01*
D02*
G37*
G36*
X916182Y278627D02*
X914525Y274627D01*
X849475D01*
X848449Y275599D01*
X846802Y278628D01*
X847280Y280410D01*
Y283470D01*
X846488Y286425D01*
X846120Y287062D01*
X848430Y291063D01*
X857721D01*
X857858Y290825D01*
X859785Y288898D01*
X862145Y287535D01*
X864777Y286830D01*
X867503D01*
X870135Y287535D01*
X872495Y288898D01*
X874422Y290825D01*
X875785Y293185D01*
X876490Y295817D01*
Y298543D01*
X875785Y301175D01*
X875134Y302302D01*
X876598Y305645D01*
X877276Y306303D01*
X888507D01*
X916182Y278627D01*
D02*
G37*
%LPC*%
G36*
X731009Y875003D02*
Y867410D01*
X738602D01*
X738023Y869571D01*
X736853Y871599D01*
X735198Y873254D01*
X733170Y874424D01*
X731009Y875003D01*
D02*
G37*
G36*
X728469D02*
X726308Y874424D01*
X724280Y873254D01*
X722625Y871599D01*
X721455Y869571D01*
X720876Y867410D01*
X728469D01*
Y875003D01*
D02*
G37*
G36*
X1224458Y886030D02*
X1221562D01*
X1218764Y885280D01*
X1216256Y883832D01*
X1214208Y881784D01*
X1212759Y879276D01*
X1212010Y876478D01*
Y873582D01*
X1212759Y870784D01*
X1214208Y868276D01*
X1216256Y866228D01*
X1218764Y864780D01*
X1221562Y864030D01*
X1224458D01*
X1227256Y864780D01*
X1229764Y866228D01*
X1231812Y868276D01*
X1233260Y870784D01*
X1234010Y873582D01*
Y876478D01*
X1233260Y879276D01*
X1231812Y881784D01*
X1229764Y883832D01*
X1227256Y885280D01*
X1224458Y886030D01*
D02*
G37*
G36*
X1153084D02*
X1150188D01*
X1147390Y885280D01*
X1144882Y883832D01*
X1142834Y881784D01*
X1141386Y879276D01*
X1140636Y876478D01*
Y873582D01*
X1141386Y870784D01*
X1142834Y868276D01*
X1144882Y866228D01*
X1147390Y864780D01*
X1150188Y864030D01*
X1153084D01*
X1155882Y864780D01*
X1158390Y866228D01*
X1160438Y868276D01*
X1161886Y870784D01*
X1162636Y873582D01*
Y876478D01*
X1161886Y879276D01*
X1160438Y881784D01*
X1158390Y883832D01*
X1155882Y885280D01*
X1153084Y886030D01*
D02*
G37*
G36*
X1081710D02*
X1078814D01*
X1076016Y885280D01*
X1073508Y883832D01*
X1071460Y881784D01*
X1070012Y879276D01*
X1069262Y876478D01*
Y873582D01*
X1070012Y870784D01*
X1071460Y868276D01*
X1073508Y866228D01*
X1076016Y864780D01*
X1078814Y864030D01*
X1081710D01*
X1084508Y864780D01*
X1087016Y866228D01*
X1089064Y868276D01*
X1090512Y870784D01*
X1091262Y873582D01*
Y876478D01*
X1090512Y879276D01*
X1089064Y881784D01*
X1087016Y883832D01*
X1084508Y885280D01*
X1081710Y886030D01*
D02*
G37*
G36*
X1010336D02*
X1007440D01*
X1004642Y885280D01*
X1002134Y883832D01*
X1000086Y881784D01*
X998638Y879276D01*
X997888Y876478D01*
Y873582D01*
X998638Y870784D01*
X1000086Y868276D01*
X1002134Y866228D01*
X1004642Y864780D01*
X1007440Y864030D01*
X1010336D01*
X1013134Y864780D01*
X1015642Y866228D01*
X1017690Y868276D01*
X1019138Y870784D01*
X1019888Y873582D01*
Y876478D01*
X1019138Y879276D01*
X1017690Y881784D01*
X1015642Y883832D01*
X1013134Y885280D01*
X1010336Y886030D01*
D02*
G37*
G36*
X938962D02*
X936066D01*
X933268Y885280D01*
X930760Y883832D01*
X928712Y881784D01*
X927264Y879276D01*
X926514Y876478D01*
Y873582D01*
X927264Y870784D01*
X928712Y868276D01*
X930760Y866228D01*
X933268Y864780D01*
X936066Y864030D01*
X938962D01*
X941760Y864780D01*
X944268Y866228D01*
X946316Y868276D01*
X947764Y870784D01*
X948514Y873582D01*
Y876478D01*
X947764Y879276D01*
X946316Y881784D01*
X944268Y883832D01*
X941760Y885280D01*
X938962Y886030D01*
D02*
G37*
G36*
X867588D02*
X864692D01*
X861894Y885280D01*
X859386Y883832D01*
X857338Y881784D01*
X855890Y879276D01*
X855140Y876478D01*
Y873582D01*
X855890Y870784D01*
X857338Y868276D01*
X859386Y866228D01*
X861894Y864780D01*
X864692Y864030D01*
X867588D01*
X870386Y864780D01*
X872894Y866228D01*
X874942Y868276D01*
X876390Y870784D01*
X877140Y873582D01*
Y876478D01*
X876390Y879276D01*
X874942Y881784D01*
X872894Y883832D01*
X870386Y885280D01*
X867588Y886030D01*
D02*
G37*
G36*
X738602Y864870D02*
X731009D01*
Y857277D01*
X733170Y857856D01*
X735198Y859026D01*
X736853Y860681D01*
X738023Y862709D01*
X738602Y864870D01*
D02*
G37*
G36*
X728469D02*
X720876D01*
X721455Y862709D01*
X722625Y860681D01*
X724280Y859026D01*
X726308Y857856D01*
X728469Y857277D01*
Y864870D01*
D02*
G37*
G36*
X625093Y859340D02*
X621407D01*
X617846Y858386D01*
X614654Y856543D01*
X612047Y853936D01*
X610204Y850744D01*
X609250Y847183D01*
Y843497D01*
X610204Y839936D01*
X612047Y836744D01*
X614654Y834137D01*
X617846Y832294D01*
X621407Y831340D01*
X625093D01*
X628654Y832294D01*
X631846Y834137D01*
X634453Y836744D01*
X636296Y839936D01*
X637250Y843497D01*
Y847183D01*
X636296Y850744D01*
X634453Y853936D01*
X631846Y856543D01*
X628654Y858386D01*
X625093Y859340D01*
D02*
G37*
G36*
X585093D02*
X581407D01*
X577846Y858386D01*
X574654Y856543D01*
X572047Y853936D01*
X570204Y850744D01*
X569250Y847183D01*
Y843497D01*
X570204Y839936D01*
X572047Y836744D01*
X574654Y834137D01*
X577846Y832294D01*
X581407Y831340D01*
X585093D01*
X588654Y832294D01*
X591846Y834137D01*
X594453Y836744D01*
X596296Y839936D01*
X597250Y843497D01*
Y847183D01*
X596296Y850744D01*
X594453Y853936D01*
X591846Y856543D01*
X588654Y858386D01*
X585093Y859340D01*
D02*
G37*
G36*
X519683D02*
X515997D01*
X512436Y858386D01*
X509244Y856543D01*
X506637Y853936D01*
X504794Y850744D01*
X503840Y847183D01*
Y843497D01*
X504794Y839936D01*
X506637Y836744D01*
X509244Y834137D01*
X512436Y832294D01*
X515997Y831340D01*
X519683D01*
X523244Y832294D01*
X526436Y834137D01*
X529043Y836744D01*
X530886Y839936D01*
X531840Y843497D01*
Y847183D01*
X530886Y850744D01*
X529043Y853936D01*
X526436Y856543D01*
X523244Y858386D01*
X519683Y859340D01*
D02*
G37*
G36*
X479683D02*
X475997D01*
X472436Y858386D01*
X469244Y856543D01*
X466637Y853936D01*
X464794Y850744D01*
X463840Y847183D01*
Y843497D01*
X464794Y839936D01*
X466637Y836744D01*
X469244Y834137D01*
X472436Y832294D01*
X475997Y831340D01*
X479683D01*
X483244Y832294D01*
X486436Y834137D01*
X489043Y836744D01*
X490886Y839936D01*
X491840Y843497D01*
Y847183D01*
X490886Y850744D01*
X489043Y853936D01*
X486436Y856543D01*
X483244Y858386D01*
X479683Y859340D01*
D02*
G37*
G36*
X773450Y849128D02*
X770970Y848801D01*
X768659Y847844D01*
X766674Y846321D01*
X765152Y844337D01*
X764194Y842026D01*
X763868Y839546D01*
Y833546D01*
X764194Y831066D01*
X765152Y828755D01*
X766674Y826771D01*
X768659Y825248D01*
X770970Y824291D01*
X773450Y823964D01*
X775930Y824291D01*
X778241Y825248D01*
X780225Y826771D01*
X781748Y828755D01*
X782705Y831066D01*
X783032Y833546D01*
Y839546D01*
X782705Y842026D01*
X781748Y844337D01*
X780225Y846321D01*
X778241Y847844D01*
X775930Y848801D01*
X773450Y849128D01*
D02*
G37*
G36*
X687050D02*
X684570Y848801D01*
X682259Y847844D01*
X680275Y846321D01*
X678752Y844337D01*
X677795Y842026D01*
X677468Y839546D01*
Y833546D01*
X677795Y831066D01*
X678752Y828755D01*
X680275Y826771D01*
X682259Y825248D01*
X684570Y824291D01*
X687050Y823964D01*
X689530Y824291D01*
X691841Y825248D01*
X693826Y826771D01*
X695348Y828755D01*
X696305Y831066D01*
X696632Y833546D01*
Y839546D01*
X696305Y842026D01*
X695348Y844337D01*
X693826Y846321D01*
X691841Y847844D01*
X689530Y848801D01*
X687050Y849128D01*
D02*
G37*
G36*
X585250Y797786D02*
Y787340D01*
X595696D01*
X594935Y790180D01*
X593284Y793040D01*
X590950Y795375D01*
X588090Y797025D01*
X585250Y797786D01*
D02*
G37*
G36*
X581250D02*
X578410Y797025D01*
X575550Y795375D01*
X573215Y793040D01*
X571565Y790180D01*
X570803Y787340D01*
X581250D01*
Y797786D01*
D02*
G37*
G36*
X479840D02*
Y787340D01*
X490286D01*
X489525Y790180D01*
X487874Y793040D01*
X485540Y795375D01*
X482680Y797025D01*
X479840Y797786D01*
D02*
G37*
G36*
X475840D02*
X473000Y797025D01*
X470140Y795375D01*
X467805Y793040D01*
X466155Y790180D01*
X465393Y787340D01*
X475840D01*
Y797786D01*
D02*
G37*
G36*
X595696Y783340D02*
X585250D01*
Y772894D01*
X588090Y773655D01*
X590950Y775305D01*
X593284Y777640D01*
X594935Y780500D01*
X595696Y783340D01*
D02*
G37*
G36*
X581250D02*
X570803D01*
X571565Y780500D01*
X573215Y777640D01*
X575550Y775305D01*
X578410Y773655D01*
X581250Y772894D01*
Y783340D01*
D02*
G37*
G36*
X490286D02*
X479840D01*
Y772894D01*
X482680Y773655D01*
X485540Y775305D01*
X487874Y777640D01*
X489525Y780500D01*
X490286Y783340D01*
D02*
G37*
G36*
X475840D02*
X465393D01*
X466155Y780500D01*
X467805Y777640D01*
X470140Y775305D01*
X473000Y773655D01*
X475840Y772894D01*
Y783340D01*
D02*
G37*
G36*
X867588Y784430D02*
X864692D01*
X861894Y783680D01*
X859386Y782232D01*
X857338Y780184D01*
X855890Y777676D01*
X855140Y774878D01*
Y771982D01*
X855330Y771272D01*
X812273Y728215D01*
X807812Y729410D01*
X807810Y729416D01*
X806362Y731924D01*
X804314Y733972D01*
X801806Y735420D01*
X799008Y736170D01*
X796112D01*
X793314Y735420D01*
X790806Y733972D01*
X788758Y731924D01*
X787310Y729416D01*
X786560Y726618D01*
Y723722D01*
X787310Y720924D01*
X788758Y718416D01*
X790806Y716368D01*
X793314Y714920D01*
X793320Y714918D01*
X794515Y710457D01*
X704334Y620276D01*
X703008Y618291D01*
X702542Y615950D01*
Y558970D01*
X697660D01*
Y536970D01*
X719660D01*
Y558970D01*
X714778D01*
Y613416D01*
X720617Y619255D01*
X725078Y618060D01*
X725080Y618054D01*
X726528Y615546D01*
X728576Y613498D01*
X731084Y612050D01*
X733882Y611300D01*
X736778D01*
X739576Y612050D01*
X742084Y613498D01*
X744132Y615546D01*
X745580Y618054D01*
X746330Y620852D01*
Y623748D01*
X745580Y626546D01*
X744132Y629054D01*
X742084Y631102D01*
X739576Y632550D01*
X739570Y632552D01*
X738375Y637013D01*
X863982Y762620D01*
X864692Y762430D01*
X867588D01*
X870386Y763180D01*
X872894Y764628D01*
X874942Y766676D01*
X876390Y769184D01*
X877140Y771982D01*
Y774878D01*
X876390Y777676D01*
X874942Y780184D01*
X872894Y782232D01*
X870386Y783680D01*
X867588Y784430D01*
D02*
G37*
G36*
X1010336D02*
X1007440D01*
X1004642Y783680D01*
X1002134Y782232D01*
X1000086Y780184D01*
X998638Y777676D01*
X997888Y774878D01*
Y771982D01*
X998638Y769184D01*
X1000086Y766676D01*
X1002134Y764628D01*
X1002770Y764260D01*
Y735887D01*
X1001139Y734653D01*
X1000059Y734612D01*
X996286Y735802D01*
X995592Y737004D01*
X993544Y739052D01*
X991036Y740500D01*
X988238Y741250D01*
X985342D01*
X982544Y740500D01*
X980036Y739052D01*
X977988Y737004D01*
X976540Y734496D01*
X975790Y731698D01*
Y728802D01*
X976540Y726004D01*
X977988Y723496D01*
X980036Y721448D01*
X982544Y720000D01*
X983551Y719730D01*
X984922Y715554D01*
X984908Y715430D01*
X835144Y565666D01*
X833818Y563681D01*
X833353Y561340D01*
Y558970D01*
X828470D01*
Y536970D01*
X850470D01*
Y558970D01*
X850470D01*
X849088Y562307D01*
X1013214Y726432D01*
X1014540Y728417D01*
X1015005Y730758D01*
Y764260D01*
X1015642Y764628D01*
X1017690Y766676D01*
X1019138Y769184D01*
X1019888Y771982D01*
Y774878D01*
X1019138Y777676D01*
X1017690Y780184D01*
X1015642Y782232D01*
X1013134Y783680D01*
X1010336Y784430D01*
D02*
G37*
G36*
X1045388Y743790D02*
X1042492D01*
X1039694Y743040D01*
X1037186Y741592D01*
X1035138Y739544D01*
X1033690Y737036D01*
X1032940Y734238D01*
Y731342D01*
X1033690Y728544D01*
X1035138Y726036D01*
X1037186Y723988D01*
X1039694Y722540D01*
X1042492Y721790D01*
X1045388D01*
X1048186Y722540D01*
X1050694Y723988D01*
X1052742Y726036D01*
X1054190Y728544D01*
X1054940Y731342D01*
Y734238D01*
X1054190Y737036D01*
X1052742Y739544D01*
X1050694Y741592D01*
X1048186Y743040D01*
X1045388Y743790D01*
D02*
G37*
G36*
X1093648Y742520D02*
X1090752D01*
X1087954Y741770D01*
X1085446Y740322D01*
X1083398Y738274D01*
X1081950Y735766D01*
X1081200Y732968D01*
Y730072D01*
X1081950Y727274D01*
X1083398Y724766D01*
X1085446Y722718D01*
X1087954Y721270D01*
X1090752Y720520D01*
X1093648D01*
X1096446Y721270D01*
X1098954Y722718D01*
X1101002Y724766D01*
X1102450Y727274D01*
X1103200Y730072D01*
Y732968D01*
X1102450Y735766D01*
X1101002Y738274D01*
X1098954Y740322D01*
X1096446Y741770D01*
X1093648Y742520D01*
D02*
G37*
G36*
X736778Y734900D02*
X733882D01*
X731084Y734150D01*
X728576Y732702D01*
X726528Y730654D01*
X725080Y728146D01*
X724330Y725348D01*
Y722452D01*
X725080Y719654D01*
X726528Y717146D01*
X728576Y715098D01*
X731084Y713650D01*
X733882Y712900D01*
X736778D01*
X739576Y713650D01*
X742084Y715098D01*
X744132Y717146D01*
X745580Y719654D01*
X746330Y722452D01*
Y725348D01*
X745580Y728146D01*
X744132Y730654D01*
X742084Y732702D01*
X739576Y734150D01*
X736778Y734900D01*
D02*
G37*
G36*
X669468Y732360D02*
X666572D01*
X663774Y731610D01*
X661266Y730162D01*
X659218Y728114D01*
X657770Y725606D01*
X657020Y722808D01*
Y719912D01*
X657770Y717114D01*
X659218Y714606D01*
X661266Y712558D01*
X663774Y711110D01*
X666572Y710360D01*
X669468D01*
X672266Y711110D01*
X674774Y712558D01*
X676822Y714606D01*
X678270Y717114D01*
X679020Y719912D01*
Y722808D01*
X678270Y725606D01*
X676822Y728114D01*
X674774Y730162D01*
X672266Y731610D01*
X669468Y732360D01*
D02*
G37*
G36*
X625093Y799340D02*
X621407D01*
X617846Y798386D01*
X614654Y796543D01*
X612047Y793936D01*
X610204Y790744D01*
X609250Y787183D01*
Y783497D01*
X609991Y780732D01*
X527653Y698395D01*
X523958Y699925D01*
Y772706D01*
X526436Y774137D01*
X529043Y776744D01*
X530886Y779936D01*
X531840Y783497D01*
Y787183D01*
X530886Y790744D01*
X529043Y793936D01*
X526436Y796543D01*
X523244Y798386D01*
X519683Y799340D01*
X515997D01*
X512436Y798386D01*
X509244Y796543D01*
X506637Y793936D01*
X504794Y790744D01*
X503840Y787183D01*
Y783497D01*
X504794Y779936D01*
X506637Y776744D01*
X509244Y774137D01*
X511722Y772706D01*
Y691713D01*
X502214Y682205D01*
X500888Y680220D01*
X500423Y677879D01*
Y294444D01*
X488956Y282978D01*
X461867D01*
X461322Y283921D01*
X459181Y286062D01*
X456764Y287458D01*
X456559Y288458D01*
Y290662D01*
X456764Y291662D01*
X459181Y293058D01*
X461322Y295199D01*
X462836Y297821D01*
X463620Y300746D01*
Y303774D01*
X462836Y306699D01*
X461322Y309321D01*
X459181Y311462D01*
X456764Y312858D01*
X456559Y313858D01*
Y316062D01*
X456764Y317062D01*
X459181Y318458D01*
X461322Y320599D01*
X462836Y323221D01*
X463620Y326146D01*
Y329174D01*
X462836Y332099D01*
X461322Y334721D01*
X459181Y336862D01*
X456764Y338258D01*
X456559Y339258D01*
Y341462D01*
X456764Y342462D01*
X459181Y343858D01*
X461322Y345999D01*
X462836Y348621D01*
X463620Y351546D01*
Y354574D01*
X462836Y357499D01*
X461322Y360121D01*
X459181Y362262D01*
X456764Y363658D01*
X456559Y364658D01*
Y366862D01*
X456764Y367862D01*
X459181Y369258D01*
X461322Y371399D01*
X462836Y374021D01*
X463620Y376946D01*
Y379974D01*
X462836Y382899D01*
X461322Y385521D01*
X459181Y387662D01*
X456764Y389058D01*
X456559Y390058D01*
Y392262D01*
X456764Y393262D01*
X459181Y394658D01*
X461322Y396799D01*
X462836Y399421D01*
X463620Y402346D01*
Y405374D01*
X462836Y408299D01*
X461322Y410921D01*
X459181Y413062D01*
X456559Y414576D01*
X454576Y415108D01*
X453634Y415360D01*
X453442Y419220D01*
X455995Y419904D01*
X458285Y421226D01*
X460154Y423095D01*
X461476Y425385D01*
X461978Y427260D01*
X442262D01*
X442764Y425385D01*
X444086Y423095D01*
X445955Y421226D01*
X448245Y419904D01*
X449630Y419533D01*
X450798Y419220D01*
X450606Y415360D01*
X449664Y415108D01*
X447681Y414576D01*
X445059Y413062D01*
X442918Y410921D01*
X441404Y408299D01*
X440620Y405374D01*
Y402346D01*
X441404Y399421D01*
X442918Y396799D01*
X445059Y394658D01*
X447476Y393262D01*
X447681Y392262D01*
Y390058D01*
X447476Y389058D01*
X445059Y387662D01*
X442918Y385521D01*
X441404Y382899D01*
X440620Y379974D01*
Y376946D01*
X441404Y374021D01*
X442918Y371399D01*
X445059Y369258D01*
X447476Y367862D01*
X447681Y366862D01*
Y364658D01*
X447476Y363658D01*
X445059Y362262D01*
X442918Y360121D01*
X441404Y357499D01*
X440620Y354574D01*
Y351546D01*
X441404Y348621D01*
X442918Y345999D01*
X445059Y343858D01*
X447476Y342462D01*
X447681Y341462D01*
Y339258D01*
X447476Y338258D01*
X445059Y336862D01*
X442918Y334721D01*
X441404Y332099D01*
X440620Y329174D01*
Y326146D01*
X441404Y323221D01*
X442918Y320599D01*
X445059Y318458D01*
X447476Y317062D01*
X447681Y316062D01*
Y313858D01*
X447476Y312858D01*
X445059Y311462D01*
X442918Y309321D01*
X441404Y306699D01*
X440620Y303774D01*
Y300746D01*
X441404Y297821D01*
X442918Y295199D01*
X445059Y293058D01*
X447476Y291662D01*
X447681Y290662D01*
Y288458D01*
X447476Y287458D01*
X445059Y286062D01*
X442918Y283921D01*
X441404Y281299D01*
X440620Y278374D01*
Y275346D01*
X441404Y272421D01*
X442918Y269799D01*
X445059Y267658D01*
X447681Y266144D01*
X450606Y265360D01*
X453634D01*
X456559Y266144D01*
X459181Y267658D01*
X461322Y269799D01*
X461867Y270742D01*
X491490D01*
X493831Y271208D01*
X495816Y272534D01*
X509905Y286623D01*
X517102Y279426D01*
X516820Y278374D01*
Y275346D01*
X517604Y272421D01*
X519118Y269799D01*
X521259Y267658D01*
X523881Y266144D01*
X526806Y265360D01*
X529834D01*
X532759Y266144D01*
X535381Y267658D01*
X537522Y269799D01*
X539036Y272421D01*
X539820Y275346D01*
Y278374D01*
X539036Y281299D01*
X537522Y283921D01*
X535381Y286062D01*
X532964Y287458D01*
X532759Y288458D01*
Y290662D01*
X532964Y291662D01*
X535381Y293058D01*
X537522Y295199D01*
X539036Y297821D01*
X539820Y300746D01*
Y303774D01*
X539036Y306699D01*
X537522Y309321D01*
X535381Y311462D01*
X532964Y312858D01*
X532759Y313858D01*
Y316062D01*
X532964Y317062D01*
X535381Y318458D01*
X537522Y320599D01*
X539036Y323221D01*
X539820Y326146D01*
Y329174D01*
X539036Y332099D01*
X537522Y334721D01*
X535381Y336862D01*
X532964Y338258D01*
X532759Y339258D01*
Y341462D01*
X532964Y342462D01*
X535381Y343858D01*
X537522Y345999D01*
X539036Y348621D01*
X539820Y351546D01*
Y354574D01*
X539036Y357499D01*
X537522Y360121D01*
X535381Y362262D01*
X532964Y363658D01*
X532759Y364658D01*
Y366862D01*
X532964Y367862D01*
X535381Y369258D01*
X537522Y371399D01*
X539036Y374021D01*
X539820Y376946D01*
Y379974D01*
X539036Y382899D01*
X537522Y385521D01*
X535381Y387662D01*
X532964Y389058D01*
X532759Y390058D01*
Y392262D01*
X532964Y393262D01*
X535381Y394658D01*
X537522Y396799D01*
X539036Y399421D01*
X539820Y402346D01*
Y405374D01*
X539036Y408299D01*
X537522Y410921D01*
X535381Y413062D01*
X532964Y414458D01*
X532759Y415458D01*
Y417662D01*
X532964Y418662D01*
X535381Y420058D01*
X537522Y422199D01*
X539036Y424821D01*
X539820Y427746D01*
Y430774D01*
X539036Y433699D01*
X537522Y436321D01*
X535381Y438462D01*
X532759Y439976D01*
X530776Y440508D01*
X529834Y440760D01*
X529642Y444620D01*
X532195Y445304D01*
X534485Y446626D01*
X536354Y448495D01*
X537676Y450785D01*
X538178Y452660D01*
X528320D01*
Y456660D01*
X538178D01*
X537676Y458535D01*
X536354Y460825D01*
X534485Y462694D01*
X532195Y464016D01*
X530810Y464387D01*
X529642Y464700D01*
X529834Y468560D01*
X530776Y468812D01*
X532759Y469344D01*
X535381Y470858D01*
X537522Y472999D01*
X539036Y475621D01*
X539820Y478546D01*
Y481574D01*
X539036Y484499D01*
X537522Y487121D01*
X535381Y489262D01*
X532964Y490658D01*
X532759Y491658D01*
Y493862D01*
X532964Y494862D01*
X535381Y496258D01*
X537522Y498399D01*
X539036Y501021D01*
X539820Y503946D01*
Y506974D01*
X539036Y509899D01*
X537522Y512521D01*
X535381Y514662D01*
X532964Y516058D01*
X532759Y517058D01*
Y519262D01*
X532964Y520262D01*
X535381Y521658D01*
X537522Y523799D01*
X539036Y526421D01*
X539820Y529346D01*
Y532374D01*
X539036Y535299D01*
X537522Y537921D01*
X535381Y540062D01*
X532964Y541458D01*
X532759Y542458D01*
Y544662D01*
X532964Y545662D01*
X535381Y547058D01*
X537522Y549199D01*
X539036Y551821D01*
X539820Y554746D01*
Y557774D01*
X539036Y560699D01*
X537522Y563321D01*
X535381Y565462D01*
X532964Y566858D01*
X532759Y567858D01*
Y570062D01*
X532964Y571062D01*
X535381Y572458D01*
X537522Y574599D01*
X539036Y577221D01*
X539820Y580146D01*
Y583174D01*
X539036Y586099D01*
X537522Y588721D01*
X535381Y590862D01*
X532964Y592258D01*
X532759Y593258D01*
Y595462D01*
X532964Y596462D01*
X535381Y597858D01*
X537522Y599999D01*
X539036Y602621D01*
X539820Y605546D01*
Y608574D01*
X539036Y611499D01*
X537522Y614121D01*
X535381Y616262D01*
X532759Y617776D01*
X529834Y618560D01*
X526806D01*
X523881Y617776D01*
X523198Y617382D01*
X519198Y619646D01*
Y672636D01*
X618642Y772081D01*
X621407Y771340D01*
X625093D01*
X628654Y772294D01*
X631846Y774137D01*
X634453Y776744D01*
X636296Y779936D01*
X637250Y783497D01*
Y787183D01*
X636296Y790744D01*
X634453Y793936D01*
X631846Y796543D01*
X628654Y798386D01*
X625093Y799340D01*
D02*
G37*
G36*
X1045388Y642190D02*
X1042492D01*
X1039694Y641440D01*
X1037186Y639992D01*
X1035138Y637944D01*
X1033690Y635436D01*
X1032940Y632638D01*
Y629742D01*
X1033690Y626944D01*
X1035138Y624436D01*
X1037186Y622388D01*
X1039694Y620940D01*
X1042492Y620190D01*
X1045388D01*
X1048186Y620940D01*
X1050694Y622388D01*
X1052742Y624436D01*
X1054190Y626944D01*
X1054940Y629742D01*
Y632638D01*
X1054190Y635436D01*
X1052742Y637944D01*
X1050694Y639992D01*
X1048186Y641440D01*
X1045388Y642190D01*
D02*
G37*
G36*
X1093648Y640920D02*
X1090752D01*
X1087954Y640170D01*
X1085446Y638722D01*
X1083398Y636674D01*
X1081950Y634166D01*
X1081200Y631368D01*
Y628472D01*
X1081950Y625674D01*
X1083398Y623166D01*
X1085446Y621118D01*
X1087954Y619670D01*
X1090752Y618920D01*
X1093648D01*
X1096446Y619670D01*
X1098954Y621118D01*
X1101002Y623166D01*
X1102450Y625674D01*
X1103200Y628472D01*
Y631368D01*
X1102450Y634166D01*
X1101002Y636674D01*
X1098954Y638722D01*
X1096446Y640170D01*
X1093648Y640920D01*
D02*
G37*
G36*
X988238Y639650D02*
X985342D01*
X982544Y638900D01*
X980036Y637452D01*
X977988Y635404D01*
X976540Y632896D01*
X975790Y630098D01*
Y627202D01*
X976540Y624404D01*
X977988Y621896D01*
X980036Y619848D01*
X982544Y618400D01*
X985342Y617650D01*
X988238D01*
X991036Y618400D01*
X993544Y619848D01*
X995592Y621896D01*
X997040Y624404D01*
X997790Y627202D01*
Y630098D01*
X997040Y632896D01*
X995592Y635404D01*
X993544Y637452D01*
X991036Y638900D01*
X988238Y639650D01*
D02*
G37*
G36*
X799008Y634570D02*
X796112D01*
X793314Y633820D01*
X790806Y632372D01*
X788758Y630324D01*
X787310Y627816D01*
X786560Y625018D01*
Y622122D01*
X787310Y619324D01*
X788758Y616816D01*
X790806Y614768D01*
X793314Y613320D01*
X796112Y612570D01*
X799008D01*
X801806Y613320D01*
X804314Y614768D01*
X806362Y616816D01*
X807810Y619324D01*
X808560Y622122D01*
Y625018D01*
X807810Y627816D01*
X806362Y630324D01*
X804314Y632372D01*
X801806Y633820D01*
X799008Y634570D01*
D02*
G37*
G36*
X669468Y630760D02*
X666572D01*
X663774Y630010D01*
X661266Y628562D01*
X659218Y626514D01*
X657770Y624006D01*
X657020Y621208D01*
Y618312D01*
X657770Y615514D01*
X659218Y613006D01*
X661266Y610958D01*
X663774Y609510D01*
X666572Y608760D01*
X669468D01*
X672266Y609510D01*
X674774Y610958D01*
X676822Y613006D01*
X678270Y615514D01*
X679020Y618312D01*
Y621208D01*
X678270Y624006D01*
X676822Y626514D01*
X674774Y628562D01*
X672266Y630010D01*
X669468Y630760D01*
D02*
G37*
G36*
X938962Y784430D02*
X936066D01*
X933268Y783680D01*
X930760Y782232D01*
X928712Y780184D01*
X927264Y777676D01*
X926514Y774878D01*
Y771982D01*
X927264Y769184D01*
X928712Y766676D01*
X930760Y764628D01*
X931396Y764260D01*
Y724148D01*
X776724Y569476D01*
X775398Y567491D01*
X774932Y565150D01*
Y558970D01*
X770050D01*
Y536970D01*
X792050D01*
Y558970D01*
X788022D01*
X787522Y562970D01*
X941840Y717288D01*
X943166Y719273D01*
X943632Y721614D01*
Y764260D01*
X944268Y764628D01*
X946316Y766676D01*
X947764Y769184D01*
X948514Y771982D01*
Y774878D01*
X947764Y777676D01*
X946316Y780184D01*
X944268Y782232D01*
X941760Y783680D01*
X938962Y784430D01*
D02*
G37*
G36*
X840918Y532970D02*
X838022D01*
X835224Y532220D01*
X832716Y530772D01*
X830668Y528724D01*
X829220Y526216D01*
X828470Y523418D01*
Y520522D01*
X829220Y517724D01*
X830668Y515216D01*
X832716Y513168D01*
X835224Y511720D01*
X838022Y510970D01*
X840918D01*
X843716Y511720D01*
X846224Y513168D01*
X848272Y515216D01*
X849720Y517724D01*
X850470Y520522D01*
Y523418D01*
X849720Y526216D01*
X848272Y528724D01*
X846224Y530772D01*
X843716Y532220D01*
X840918Y532970D01*
D02*
G37*
G36*
X782498D02*
X779602D01*
X776804Y532220D01*
X774296Y530772D01*
X772248Y528724D01*
X770800Y526216D01*
X770050Y523418D01*
Y520522D01*
X770800Y517724D01*
X772248Y515216D01*
X774296Y513168D01*
X776804Y511720D01*
X779602Y510970D01*
X782498D01*
X785296Y511720D01*
X787804Y513168D01*
X789852Y515216D01*
X791300Y517724D01*
X792050Y520522D01*
Y523418D01*
X791300Y526216D01*
X789852Y528724D01*
X787804Y530772D01*
X785296Y532220D01*
X782498Y532970D01*
D02*
G37*
G36*
X710108D02*
X707212D01*
X704414Y532220D01*
X701906Y530772D01*
X699858Y528724D01*
X698410Y526216D01*
X697660Y523418D01*
Y520522D01*
X698410Y517724D01*
X699858Y515216D01*
X701906Y513168D01*
X704414Y511720D01*
X707212Y510970D01*
X710108D01*
X712906Y511720D01*
X715414Y513168D01*
X717462Y515216D01*
X718910Y517724D01*
X719660Y520522D01*
Y523418D01*
X718910Y526216D01*
X717462Y528724D01*
X715414Y530772D01*
X712906Y532220D01*
X710108Y532970D01*
D02*
G37*
G36*
X1153084Y784430D02*
X1150188D01*
X1147390Y783680D01*
X1144882Y782232D01*
X1142834Y780184D01*
X1141386Y777676D01*
X1140636Y774878D01*
Y771982D01*
X1141386Y769184D01*
X1142834Y766676D01*
X1144882Y764628D01*
X1145924Y764026D01*
X1145984Y763723D01*
X1147310Y761738D01*
X1167363Y741686D01*
Y528490D01*
X1162480D01*
Y506490D01*
X1184480D01*
Y528490D01*
X1179597D01*
Y744220D01*
X1179132Y746561D01*
X1177806Y748546D01*
X1160057Y766295D01*
X1160438Y766676D01*
X1161886Y769184D01*
X1162636Y771982D01*
Y774878D01*
X1161886Y777676D01*
X1160438Y780184D01*
X1158390Y782232D01*
X1155882Y783680D01*
X1153084Y784430D01*
D02*
G37*
G36*
X1224458D02*
X1221562D01*
X1218764Y783680D01*
X1216256Y782232D01*
X1214208Y780184D01*
X1212759Y777676D01*
X1212010Y774878D01*
Y771982D01*
X1212759Y769184D01*
X1214208Y766676D01*
X1216256Y764628D01*
X1216892Y764260D01*
Y527890D01*
X1210740D01*
Y505890D01*
X1232740D01*
Y527890D01*
X1229127D01*
Y764260D01*
X1229764Y764628D01*
X1231812Y766676D01*
X1233260Y769184D01*
X1234010Y771982D01*
Y774878D01*
X1233260Y777676D01*
X1231812Y780184D01*
X1229764Y782232D01*
X1227256Y783680D01*
X1224458Y784430D01*
D02*
G37*
G36*
X840918Y506970D02*
X838022D01*
X835224Y506220D01*
X832716Y504772D01*
X830668Y502724D01*
X829220Y500216D01*
X828470Y497418D01*
Y494522D01*
X829220Y491724D01*
X830668Y489216D01*
X832716Y487168D01*
X835224Y485720D01*
X838022Y484970D01*
X840918D01*
X843716Y485720D01*
X846224Y487168D01*
X848272Y489216D01*
X849720Y491724D01*
X850470Y494522D01*
Y497418D01*
X849720Y500216D01*
X848272Y502724D01*
X846224Y504772D01*
X843716Y506220D01*
X840918Y506970D01*
D02*
G37*
G36*
X782498D02*
X779602D01*
X776804Y506220D01*
X774296Y504772D01*
X772248Y502724D01*
X770800Y500216D01*
X770050Y497418D01*
Y494522D01*
X770800Y491724D01*
X772248Y489216D01*
X774296Y487168D01*
X776804Y485720D01*
X779602Y484970D01*
X782498D01*
X785296Y485720D01*
X787804Y487168D01*
X789852Y489216D01*
X791300Y491724D01*
X792050Y494522D01*
Y497418D01*
X791300Y500216D01*
X789852Y502724D01*
X787804Y504772D01*
X785296Y506220D01*
X782498Y506970D01*
D02*
G37*
G36*
X710108D02*
X707212D01*
X704414Y506220D01*
X701906Y504772D01*
X699858Y502724D01*
X698410Y500216D01*
X697660Y497418D01*
Y494522D01*
X698410Y491724D01*
X699858Y489216D01*
X701906Y487168D01*
X704414Y485720D01*
X707212Y484970D01*
X710108D01*
X712906Y485720D01*
X715414Y487168D01*
X717462Y489216D01*
X718910Y491724D01*
X719660Y494522D01*
Y497418D01*
X718910Y500216D01*
X717462Y502724D01*
X715414Y504772D01*
X712906Y506220D01*
X710108Y506970D01*
D02*
G37*
G36*
X1174928Y502490D02*
X1172032D01*
X1169234Y501740D01*
X1166726Y500292D01*
X1164678Y498244D01*
X1163230Y495736D01*
X1162480Y492938D01*
Y490042D01*
X1163230Y487244D01*
X1164678Y484736D01*
X1166726Y482688D01*
X1169234Y481240D01*
X1172032Y480490D01*
X1174928D01*
X1177726Y481240D01*
X1180234Y482688D01*
X1182282Y484736D01*
X1183730Y487244D01*
X1184480Y490042D01*
Y492938D01*
X1183730Y495736D01*
X1182282Y498244D01*
X1180234Y500292D01*
X1177726Y501740D01*
X1174928Y502490D01*
D02*
G37*
G36*
X1223188Y501890D02*
X1220292D01*
X1217494Y501140D01*
X1214986Y499692D01*
X1212938Y497644D01*
X1211490Y495136D01*
X1210740Y492338D01*
Y489442D01*
X1211490Y486644D01*
X1212938Y484136D01*
X1214986Y482088D01*
X1217494Y480640D01*
X1220292Y479890D01*
X1223188D01*
X1225986Y480640D01*
X1228494Y482088D01*
X1230542Y484136D01*
X1231990Y486644D01*
X1232740Y489442D01*
Y492338D01*
X1231990Y495136D01*
X1230542Y497644D01*
X1228494Y499692D01*
X1225986Y501140D01*
X1223188Y501890D01*
D02*
G37*
G36*
X1174928Y476490D02*
X1172032D01*
X1169234Y475740D01*
X1166726Y474292D01*
X1164678Y472244D01*
X1163230Y469736D01*
X1162480Y466938D01*
Y464042D01*
X1163230Y461244D01*
X1164678Y458736D01*
X1166726Y456688D01*
X1169234Y455240D01*
X1172032Y454490D01*
X1174928D01*
X1177726Y455240D01*
X1180234Y456688D01*
X1182282Y458736D01*
X1183730Y461244D01*
X1184480Y464042D01*
Y466938D01*
X1183730Y469736D01*
X1182282Y472244D01*
X1180234Y474292D01*
X1177726Y475740D01*
X1174928Y476490D01*
D02*
G37*
G36*
X1223188Y475890D02*
X1220292D01*
X1217494Y475140D01*
X1214986Y473692D01*
X1212938Y471644D01*
X1211490Y469136D01*
X1210740Y466338D01*
Y463442D01*
X1211490Y460644D01*
X1212938Y458136D01*
X1214986Y456088D01*
X1217494Y454640D01*
X1220292Y453890D01*
X1223188D01*
X1225986Y454640D01*
X1228494Y456088D01*
X1230542Y458136D01*
X1231990Y460644D01*
X1232740Y463442D01*
Y466338D01*
X1231990Y469136D01*
X1230542Y471644D01*
X1228494Y473692D01*
X1225986Y475140D01*
X1223188Y475890D01*
D02*
G37*
G36*
X463620Y618560D02*
X440620D01*
Y595560D01*
X445196D01*
X446267Y591560D01*
X445059Y590862D01*
X442918Y588721D01*
X441404Y586099D01*
X440620Y583174D01*
Y580146D01*
X441404Y577221D01*
X442918Y574599D01*
X445059Y572458D01*
X447476Y571062D01*
X447681Y570062D01*
Y567858D01*
X447476Y566858D01*
X445059Y565462D01*
X442918Y563321D01*
X441404Y560699D01*
X440620Y557774D01*
Y554746D01*
X441404Y551821D01*
X442918Y549199D01*
X445059Y547058D01*
X447476Y545662D01*
X447681Y544662D01*
Y542458D01*
X447476Y541458D01*
X445059Y540062D01*
X442918Y537921D01*
X441404Y535299D01*
X440620Y532374D01*
Y529346D01*
X441404Y526421D01*
X442918Y523799D01*
X445059Y521658D01*
X447476Y520262D01*
X447681Y519262D01*
Y517058D01*
X447476Y516058D01*
X445059Y514662D01*
X442918Y512521D01*
X441404Y509899D01*
X440620Y506974D01*
Y503946D01*
X441404Y501021D01*
X442918Y498399D01*
X445059Y496258D01*
X447476Y494862D01*
X447681Y493862D01*
Y491658D01*
X447476Y490658D01*
X445059Y489262D01*
X442918Y487121D01*
X441404Y484499D01*
X440620Y481574D01*
Y478546D01*
X441404Y475621D01*
X442918Y472999D01*
X445059Y470858D01*
X447476Y469462D01*
X447681Y468462D01*
Y466258D01*
X447476Y465258D01*
X445059Y463862D01*
X442918Y461721D01*
X441404Y459099D01*
X440620Y456174D01*
Y453146D01*
X441404Y450221D01*
X442918Y447599D01*
X445059Y445458D01*
X447681Y443944D01*
X449664Y443412D01*
X450606Y443160D01*
X450798Y439300D01*
X448245Y438616D01*
X445955Y437294D01*
X444086Y435425D01*
X442764Y433135D01*
X442262Y431260D01*
X461978D01*
X461476Y433135D01*
X460154Y435425D01*
X458285Y437294D01*
X455995Y438616D01*
X454610Y438987D01*
X453442Y439300D01*
X453634Y443160D01*
X454576Y443412D01*
X456559Y443944D01*
X459181Y445458D01*
X461322Y447599D01*
X462836Y450221D01*
X463620Y453146D01*
Y456174D01*
X462836Y459099D01*
X461322Y461721D01*
X459181Y463862D01*
X456764Y465258D01*
X456559Y466258D01*
Y468462D01*
X456764Y469462D01*
X459181Y470858D01*
X461322Y472999D01*
X462836Y475621D01*
X463620Y478546D01*
Y481574D01*
X462836Y484499D01*
X461322Y487121D01*
X459181Y489262D01*
X456764Y490658D01*
X456559Y491658D01*
Y493862D01*
X456764Y494862D01*
X459181Y496258D01*
X461322Y498399D01*
X462836Y501021D01*
X463620Y503946D01*
Y506974D01*
X462836Y509899D01*
X461322Y512521D01*
X459181Y514662D01*
X456764Y516058D01*
X456559Y517058D01*
Y519262D01*
X456764Y520262D01*
X459181Y521658D01*
X461322Y523799D01*
X462836Y526421D01*
X463620Y529346D01*
Y532374D01*
X462836Y535299D01*
X461322Y537921D01*
X459181Y540062D01*
X456764Y541458D01*
X456559Y542458D01*
Y544662D01*
X456764Y545662D01*
X459181Y547058D01*
X461322Y549199D01*
X462836Y551821D01*
X463620Y554746D01*
Y557774D01*
X462836Y560699D01*
X461322Y563321D01*
X459181Y565462D01*
X456764Y566858D01*
X456559Y567858D01*
Y570062D01*
X456764Y571062D01*
X459181Y572458D01*
X461322Y574599D01*
X462836Y577221D01*
X463620Y580146D01*
Y583174D01*
X462836Y586099D01*
X461322Y588721D01*
X459181Y590862D01*
X457973Y591560D01*
X459044Y595560D01*
X463620D01*
Y618560D01*
D02*
G37*
%LPD*%
D19*
X687050Y874546D02*
D03*
X773450D02*
D03*
X687050Y836546D02*
D03*
X773450D02*
D03*
D26*
X1127760Y297180D02*
X1167130D01*
X1118870Y288290D02*
X1127760Y297180D01*
X1167130D02*
X1182370Y281940D01*
X1118870Y276173D02*
Y288290D01*
X491490Y276860D02*
X506540Y291910D01*
X517840Y689179D02*
Y785313D01*
X506540Y291910D02*
Y677879D01*
X517840Y689179D01*
X452120Y276860D02*
X491490D01*
X513080Y675170D02*
X623250Y785340D01*
X513080Y292100D02*
Y675170D01*
Y292100D02*
X528320Y276860D01*
X665480Y340360D02*
X771620Y446500D01*
X615950Y340360D02*
X665480D01*
X452120Y353060D02*
X455097D01*
X1151636Y766064D02*
Y773430D01*
X1223010Y516890D02*
X1223010Y516890D01*
X1223010Y516890D02*
Y773430D01*
X1151636Y766064D02*
X1173480Y744220D01*
Y517490D02*
Y744220D01*
X1080262Y773430D02*
X1123950Y729742D01*
Y478190D02*
Y729742D01*
Y478190D02*
X1137920Y464220D01*
X839470Y547970D02*
Y561340D01*
X1008888Y730758D01*
Y773430D01*
X781050Y547970D02*
Y565150D01*
X937514Y721614D02*
Y773430D01*
X781050Y565150D02*
X937514Y721614D01*
X708660Y547970D02*
Y615950D01*
X866140Y773430D01*
X727710Y373380D02*
X774700D01*
X835660Y434340D01*
X771620Y446500D02*
X1143540D01*
X1156970Y433070D01*
X1022350Y359410D02*
X1057910D01*
X1131570Y433070D01*
X835660Y335280D02*
Y434340D01*
X844550Y326390D02*
X896620D01*
X835660Y335280D02*
X844550Y326390D01*
X904240Y318770D02*
X1217930D01*
X896620Y326390D02*
X904240Y318770D01*
X1217930D02*
X1233170Y334010D01*
Y433070D01*
X452120Y429260D02*
X453390D01*
X450850Y554990D02*
X452120Y556260D01*
X528320Y505460D02*
X530860Y508000D01*
X744220Y297180D02*
X866140D01*
X736600Y289560D02*
X744220Y297180D01*
X779430Y261970D02*
X1138270D01*
X759460Y281940D02*
X779430Y261970D01*
X1138270D02*
X1156970Y280670D01*
X1111207Y268510D02*
X1118870Y276173D01*
X891041Y312420D02*
X922791Y280670D01*
X798290Y268510D02*
X1111207D01*
X922791Y280670D02*
X1106170D01*
X784860Y281940D02*
X798290Y268510D01*
X739140Y312420D02*
X891041D01*
X708660Y281940D02*
X739140Y312420D01*
D27*
X1233170Y434340D02*
D03*
X1207770D02*
D03*
X1182370D02*
D03*
X1156970D02*
D03*
X1131570D02*
D03*
X1106170D02*
D03*
X1233170Y281940D02*
D03*
X1207770D02*
D03*
X1182370D02*
D03*
X1156970D02*
D03*
X1131570D02*
D03*
X1106170D02*
D03*
X835660Y434340D02*
D03*
X810260D02*
D03*
X784860D02*
D03*
X759460D02*
D03*
X734060D02*
D03*
X708660D02*
D03*
X835660Y281940D02*
D03*
X810260D02*
D03*
X784860D02*
D03*
X759460D02*
D03*
X734060D02*
D03*
X708660D02*
D03*
D28*
X517840Y845340D02*
D03*
Y785340D02*
D03*
X477840D02*
D03*
Y845340D02*
D03*
X583250D02*
D03*
Y785340D02*
D03*
X623250D02*
D03*
Y845340D02*
D03*
D29*
X528320Y276860D02*
D03*
Y302260D02*
D03*
Y327660D02*
D03*
Y353060D02*
D03*
Y378460D02*
D03*
Y403860D02*
D03*
Y429260D02*
D03*
Y454660D02*
D03*
Y480060D02*
D03*
Y505460D02*
D03*
Y530860D02*
D03*
Y556260D02*
D03*
Y581660D02*
D03*
Y607060D02*
D03*
X452120Y276860D02*
D03*
Y302260D02*
D03*
Y327660D02*
D03*
Y353060D02*
D03*
Y378460D02*
D03*
Y403860D02*
D03*
Y429260D02*
D03*
Y454660D02*
D03*
Y480060D02*
D03*
Y505460D02*
D03*
Y530860D02*
D03*
Y556260D02*
D03*
Y581660D02*
D03*
D30*
Y607060D02*
D03*
D31*
X1223010Y875030D02*
D03*
Y773430D02*
D03*
X1221740Y464890D02*
D03*
Y490890D02*
D03*
X986790Y628650D02*
D03*
Y730250D02*
D03*
X1043940Y631190D02*
D03*
Y732790D02*
D03*
X1092200Y629920D02*
D03*
Y731520D02*
D03*
X668020Y619760D02*
D03*
Y721360D02*
D03*
X735330Y622300D02*
D03*
Y723900D02*
D03*
X797560Y623570D02*
D03*
Y725170D02*
D03*
X1008888Y773430D02*
D03*
Y875030D02*
D03*
X937514Y773430D02*
D03*
Y875030D02*
D03*
X866140Y773430D02*
D03*
Y875030D02*
D03*
X1151636Y773430D02*
D03*
Y875030D02*
D03*
X1080262Y773430D02*
D03*
Y875030D02*
D03*
X839470Y521970D02*
D03*
Y495970D02*
D03*
X781050Y521970D02*
D03*
Y495970D02*
D03*
X708660Y521970D02*
D03*
Y495970D02*
D03*
X1173480Y491490D02*
D03*
Y465490D02*
D03*
X1137920Y490220D02*
D03*
Y516220D02*
D03*
D32*
X1221740Y516890D02*
D03*
X839470Y547970D02*
D03*
X781050D02*
D03*
X708660D02*
D03*
X1173480Y517490D02*
D03*
X1137920Y464220D02*
D03*
D33*
X729739Y866140D02*
D03*
X615950Y340360D02*
D03*
X727710Y373380D02*
D03*
X1022350Y359410D02*
D03*
X866140Y297180D02*
D03*
M02*
