G04*
G04 #@! TF.GenerationSoftware,Altium Limited,Altium Designer,24.10.1 (45)*
G04*
G04 Layer_Color=32768*
%FSLAX44Y44*%
%MOMM*%
G71*
G04*
G04 #@! TF.SameCoordinates,C5BE6EB9-D647-4441-8654-D56C766D6CB2*
G04*
G04*
G04 #@! TF.FilePolarity,Positive*
G04*
G01*
G75*
%ADD34C,0.1000*%
%ADD35C,0.0500*%
D34*
X490220Y436960D02*
Y446960D01*
X485220Y441960D02*
X495220D01*
X1221740Y485890D02*
Y495890D01*
X1216740Y490890D02*
X1226740D01*
X834470Y521970D02*
X844470D01*
X839470Y516970D02*
Y526970D01*
X776050Y521970D02*
X786050D01*
X781050Y516970D02*
Y526970D01*
X703660Y521970D02*
X713660D01*
X708660Y516970D02*
Y526970D01*
X1168480Y491490D02*
X1178480D01*
X1173480Y486490D02*
Y496490D01*
X1132920Y490220D02*
X1142920D01*
X1137920Y485220D02*
Y495220D01*
D35*
X1207390Y456890D02*
X1246240D01*
Y524890D01*
X1207390D02*
X1246240D01*
X1207390Y456890D02*
Y524890D01*
X825120Y487970D02*
Y555970D01*
X863970D01*
Y487970D02*
Y555970D01*
X825120Y487970D02*
X863970D01*
X766700D02*
Y555970D01*
X805550D01*
Y487970D02*
Y555970D01*
X766700Y487970D02*
X805550D01*
X694310D02*
Y555970D01*
X733160D01*
Y487970D02*
Y555970D01*
X694310Y487970D02*
X733160D01*
X1159130Y457490D02*
Y525490D01*
X1197980D01*
Y457490D02*
Y525490D01*
X1159130Y457490D02*
X1197980D01*
X1152270Y456220D02*
Y524220D01*
X1113420Y456220D02*
X1152270D01*
X1113420D02*
Y524220D01*
X1152270D01*
M02*
