G04*
G04 #@! TF.GenerationSoftware,Altium Limited,Altium Designer,24.10.1 (45)*
G04*
G04 Layer_Color=128*
%FSLAX44Y44*%
%MOMM*%
G71*
G04*
G04 #@! TF.SameCoordinates,C5BE6EB9-D647-4441-8654-D56C766D6CB2*
G04*
G04*
G04 #@! TF.FilePolarity,Positive*
G04*
G01*
G75*
%ADD36C,0.1270*%
D36*
X1229360Y434340D02*
X1236980D01*
X1233170Y430530D02*
Y438150D01*
X1203960Y434340D02*
X1211580D01*
X1207770Y430530D02*
Y438150D01*
X1178560Y434340D02*
X1186180D01*
X1182370Y430530D02*
Y438150D01*
X1153160Y434340D02*
X1160780D01*
X1156970Y430530D02*
Y438150D01*
X1127760Y434340D02*
X1135380D01*
X1131570Y430530D02*
Y438150D01*
X1102360Y434340D02*
X1109980D01*
X1106170Y430530D02*
Y438150D01*
X1229360Y281940D02*
X1236980D01*
X1233170Y278130D02*
Y285750D01*
X1203960Y281940D02*
X1211580D01*
X1207770Y278130D02*
Y285750D01*
X1178560Y281940D02*
X1186180D01*
X1182370Y278130D02*
Y285750D01*
X1153160Y281940D02*
X1160780D01*
X1156970Y278130D02*
Y285750D01*
X1127760Y281940D02*
X1135380D01*
X1131570Y278130D02*
Y285750D01*
X1102360Y281940D02*
X1109980D01*
X1106170Y278130D02*
Y285750D01*
X512840Y845340D02*
X522840D01*
X517840Y840340D02*
Y850340D01*
X512840Y785340D02*
X522840D01*
X517840Y780340D02*
Y790340D01*
X472840Y785340D02*
X482840D01*
X477840Y780340D02*
Y790340D01*
X472840Y845340D02*
X482840D01*
X477840Y840340D02*
Y850340D01*
X681050Y874546D02*
X693050D01*
X687050Y868546D02*
Y880546D01*
X767450Y874546D02*
X779450D01*
X773450Y868546D02*
Y880546D01*
X681050Y836546D02*
X693050D01*
X687050Y830546D02*
Y842546D01*
X767450Y836546D02*
X779450D01*
X773450Y830546D02*
Y842546D01*
X831850Y434340D02*
X839470D01*
X835660Y430530D02*
Y438150D01*
X806450Y434340D02*
X814070D01*
X810260Y430530D02*
Y438150D01*
X781050Y434340D02*
X788670D01*
X784860Y430530D02*
Y438150D01*
X755650Y434340D02*
X763270D01*
X759460Y430530D02*
Y438150D01*
X730250Y434340D02*
X737870D01*
X734060Y430530D02*
Y438150D01*
X704850Y434340D02*
X712470D01*
X708660Y430530D02*
Y438150D01*
X831850Y281940D02*
X839470D01*
X835660Y278130D02*
Y285750D01*
X806450Y281940D02*
X814070D01*
X810260Y278130D02*
Y285750D01*
X781050Y281940D02*
X788670D01*
X784860Y278130D02*
Y285750D01*
X755650Y281940D02*
X763270D01*
X759460Y278130D02*
Y285750D01*
X730250Y281940D02*
X737870D01*
X734060Y278130D02*
Y285750D01*
X704850Y281940D02*
X712470D01*
X708660Y278130D02*
Y285750D01*
X523820Y276860D02*
X532820D01*
X528320Y272360D02*
Y281360D01*
X523820Y302260D02*
X532820D01*
X528320Y297760D02*
Y306760D01*
X523820Y327660D02*
X532820D01*
X528320Y323160D02*
Y332160D01*
X523820Y353060D02*
X532820D01*
X528320Y348560D02*
Y357560D01*
X523820Y378460D02*
X532820D01*
X528320Y373960D02*
Y382960D01*
X523820Y403860D02*
X532820D01*
X528320Y399360D02*
Y408360D01*
X523820Y429260D02*
X532820D01*
X528320Y424760D02*
Y433760D01*
X523820Y454660D02*
X532820D01*
X528320Y450160D02*
Y459160D01*
X523820Y480060D02*
X532820D01*
X528320Y475560D02*
Y484560D01*
X523820Y505460D02*
X532820D01*
X528320Y500960D02*
Y509960D01*
X523820Y530860D02*
X532820D01*
X528320Y526360D02*
Y535360D01*
X523820Y556260D02*
X532820D01*
X528320Y551760D02*
Y560760D01*
X523820Y581660D02*
X532820D01*
X528320Y577160D02*
Y586160D01*
X523820Y607060D02*
X532820D01*
X528320Y602560D02*
Y611560D01*
X447620Y276860D02*
X456620D01*
X452120Y272360D02*
Y281360D01*
X447620Y302260D02*
X456620D01*
X452120Y297760D02*
Y306760D01*
X447620Y327660D02*
X456620D01*
X452120Y323160D02*
Y332160D01*
X447620Y353060D02*
X456620D01*
X452120Y348560D02*
Y357560D01*
X447620Y378460D02*
X456620D01*
X452120Y373960D02*
Y382960D01*
X447620Y403860D02*
X456620D01*
X452120Y399360D02*
Y408360D01*
X447620Y429260D02*
X456620D01*
X452120Y424760D02*
Y433760D01*
X447620Y454660D02*
X456620D01*
X452120Y450160D02*
Y459160D01*
X447620Y480060D02*
X456620D01*
X452120Y475560D02*
Y484560D01*
X447620Y505460D02*
X456620D01*
X452120Y500960D02*
Y509960D01*
X447620Y530860D02*
X456620D01*
X452120Y526360D02*
Y535360D01*
X447620Y556260D02*
X456620D01*
X452120Y551760D02*
Y560760D01*
X447620Y581660D02*
X456620D01*
X452120Y577160D02*
Y586160D01*
X447620Y607060D02*
X456620D01*
X452120Y602560D02*
Y611560D01*
X578250Y845340D02*
X588250D01*
X583250Y840340D02*
Y850340D01*
X578250Y785340D02*
X588250D01*
X583250Y780340D02*
Y790340D01*
X618250Y785340D02*
X628250D01*
X623250Y780340D02*
Y790340D01*
X618250Y845340D02*
X628250D01*
X623250Y840340D02*
Y850340D01*
X1218760Y875030D02*
X1227260D01*
X1223010Y870780D02*
Y879280D01*
X1218760Y773430D02*
X1227260D01*
X1223010Y769180D02*
Y777680D01*
X1217240Y516890D02*
X1226240D01*
X1221740Y512390D02*
Y521390D01*
X1217240Y464890D02*
X1226240D01*
X1221740Y460390D02*
Y469390D01*
X1217240Y490890D02*
X1226240D01*
X1221740Y486390D02*
Y495390D01*
X982540Y628650D02*
X991040D01*
X986790Y624400D02*
Y632900D01*
X982540Y730250D02*
X991040D01*
X986790Y726000D02*
Y734500D01*
X1039690Y631190D02*
X1048190D01*
X1043940Y626940D02*
Y635440D01*
X1039690Y732790D02*
X1048190D01*
X1043940Y728540D02*
Y737040D01*
X1087950Y629920D02*
X1096450D01*
X1092200Y625670D02*
Y634170D01*
X1087950Y731520D02*
X1096450D01*
X1092200Y727270D02*
Y735770D01*
X663770Y619760D02*
X672270D01*
X668020Y615510D02*
Y624010D01*
X663770Y721360D02*
X672270D01*
X668020Y717110D02*
Y725610D01*
X731080Y622300D02*
X739580D01*
X735330Y618050D02*
Y626550D01*
X731080Y723900D02*
X739580D01*
X735330Y719650D02*
Y728150D01*
X793310Y623570D02*
X801810D01*
X797560Y619320D02*
Y627820D01*
X793310Y725170D02*
X801810D01*
X797560Y720920D02*
Y729420D01*
X1004638Y773430D02*
X1013138D01*
X1008888Y769180D02*
Y777680D01*
X1004638Y875030D02*
X1013138D01*
X1008888Y870780D02*
Y879280D01*
X933264Y773430D02*
X941764D01*
X937514Y769180D02*
Y777680D01*
X933264Y875030D02*
X941764D01*
X937514Y870780D02*
Y879280D01*
X861890Y773430D02*
X870390D01*
X866140Y769180D02*
Y777680D01*
X861890Y875030D02*
X870390D01*
X866140Y870780D02*
Y879280D01*
X1147386Y773430D02*
X1155886D01*
X1151636Y769180D02*
Y777680D01*
X1147386Y875030D02*
X1155886D01*
X1151636Y870780D02*
Y879280D01*
X1076012Y773430D02*
X1084512D01*
X1080262Y769180D02*
Y777680D01*
X1076012Y875030D02*
X1084512D01*
X1080262Y870780D02*
Y879280D01*
X834970Y521970D02*
X843970D01*
X839470Y517470D02*
Y526470D01*
X834970Y495970D02*
X843970D01*
X839470Y491470D02*
Y500470D01*
X834970Y547970D02*
X843970D01*
X839470Y543470D02*
Y552470D01*
X776550Y521970D02*
X785550D01*
X781050Y517470D02*
Y526470D01*
X776550Y495970D02*
X785550D01*
X781050Y491470D02*
Y500470D01*
X776550Y547970D02*
X785550D01*
X781050Y543470D02*
Y552470D01*
X704160Y521970D02*
X713160D01*
X708660Y517470D02*
Y526470D01*
X704160Y495970D02*
X713160D01*
X708660Y491470D02*
Y500470D01*
X704160Y547970D02*
X713160D01*
X708660Y543470D02*
Y552470D01*
X1168980Y491490D02*
X1177980D01*
X1173480Y486990D02*
Y495990D01*
X1168980Y465490D02*
X1177980D01*
X1173480Y460990D02*
Y469990D01*
X1168980Y517490D02*
X1177980D01*
X1173480Y512990D02*
Y521990D01*
X1133420Y490220D02*
X1142420D01*
X1137920Y485720D02*
Y494720D01*
X1133420Y516220D02*
X1142420D01*
X1137920Y511720D02*
Y520720D01*
X1133420Y464220D02*
X1142420D01*
X1137920Y459720D02*
Y468720D01*
X726183Y866140D02*
X733295D01*
X729739Y862584D02*
Y869696D01*
X612394Y340360D02*
X619506D01*
X615950Y336804D02*
Y343916D01*
X724154Y373380D02*
X731266D01*
X727710Y369824D02*
Y376936D01*
X1018794Y359410D02*
X1025906D01*
X1022350Y355854D02*
Y362966D01*
X862584Y297180D02*
X869696D01*
X866140Y293624D02*
Y300736D01*
M02*
