G04*
G04 #@! TF.GenerationSoftware,Altium Limited,Altium Designer,24.10.1 (45)*
G04*
G04 Layer_Physical_Order=1*
G04 Layer_Color=255*
%FSLAX44Y44*%
%MOMM*%
G71*
G04*
G04 #@! TF.SameCoordinates,C5BE6EB9-D647-4441-8654-D56C766D6CB2*
G04*
G04*
G04 #@! TF.FilePolarity,Positive*
G04*
G01*
G75*
%ADD14R,0.7000X1.2000*%
%ADD15R,0.7600X1.2000*%
%ADD16R,0.8000X1.2000*%
G04:AMPARAMS|DCode=19|XSize=1.1mm|YSize=1.7mm|CornerRadius=0.55mm|HoleSize=0mm|Usage=FLASHONLY|Rotation=180.000|XOffset=0mm|YOffset=0mm|HoleType=Round|Shape=RoundedRectangle|*
%AMROUNDEDRECTD19*
21,1,1.1000,0.6000,0,0,180.0*
21,1,0.0000,1.7000,0,0,180.0*
1,1,1.1000,0.0000,0.3000*
1,1,1.1000,0.0000,0.3000*
1,1,1.1000,0.0000,-0.3000*
1,1,1.1000,0.0000,-0.3000*
%
%ADD19ROUNDEDRECTD19*%
%ADD25C,0.7000*%
%ADD26C,0.4000*%
%ADD27C,1.5240*%
%ADD28C,2.0000*%
%ADD29C,1.5000*%
%ADD30R,1.5000X1.5000*%
%ADD31C,1.4000*%
%ADD32R,1.4000X1.4000*%
%ADD33C,1.2700*%
D14*
X725250Y836546D02*
D03*
X735250D02*
D03*
D15*
X715050D02*
D03*
X745450D02*
D03*
D16*
X702750D02*
D03*
X757750D02*
D03*
D19*
X687050Y874546D02*
D03*
X773450D02*
D03*
X687050Y836546D02*
D03*
X773450D02*
D03*
D25*
X739140Y866140D02*
X757750Y847530D01*
Y836546D02*
Y847530D01*
X720338Y866140D02*
X739140D01*
X702750Y836546D02*
Y848552D01*
X720338Y866140D01*
X681440Y747480D02*
X731907Y797947D01*
X715050Y811490D02*
X728593Y797947D01*
X731907D01*
X745450Y811490D01*
X715050D02*
Y836546D01*
X431800Y610282D02*
X568998Y747480D01*
X431800Y467557D02*
Y610282D01*
Y467557D02*
X443166Y456191D01*
X450589D01*
X452120Y454660D01*
X568998Y747480D02*
X681440D01*
X1151636Y875030D02*
X1223010D01*
X1080262D02*
X1151636D01*
X1008888D02*
X1080262D01*
X937514D02*
X1008888D01*
X866140D02*
X937514D01*
X802600Y811490D02*
X866140Y875030D01*
X745450Y811490D02*
X802600D01*
X745450D02*
Y836546D01*
D26*
X523993Y340360D02*
X615950D01*
X511293Y353060D02*
X523993Y340360D01*
X649580Y417220D02*
X784860Y281940D01*
X509880Y417220D02*
X649580D01*
X452120Y353060D02*
X511293D01*
X435610Y311150D02*
X452120Y327660D01*
X435610Y267773D02*
X440143Y263240D01*
X435610Y267773D02*
Y311150D01*
X452120Y302260D02*
X464820Y314960D01*
X638244D02*
X683424Y269780D01*
X464820Y314960D02*
X638244D01*
X732790Y433070D02*
X734060Y434340D01*
X721900Y422180D02*
X732790Y433070D01*
X452120Y581660D02*
X452120D01*
X508399Y482954D02*
X524653Y466700D01*
X643639D02*
X688159Y422180D01*
X452120Y581660D02*
X508399Y525381D01*
X688159Y422180D02*
X721900D01*
X508399Y482954D02*
Y525381D01*
X524653Y466700D02*
X643639D01*
X540360Y516624D02*
X672706Y648970D01*
X528320Y480060D02*
X540360Y492100D01*
X673617Y659130D02*
X899350D01*
X982010Y741790D02*
X1034940D01*
X899350Y659130D02*
X982010Y741790D01*
X530056Y515569D02*
X673617Y659130D01*
X540360Y492100D02*
Y516624D01*
X530056Y507196D02*
Y515569D01*
X659130Y441960D02*
X727710Y373380D01*
X528320Y505460D02*
X530056Y507196D01*
X514350Y441960D02*
X659130D01*
X501859Y454451D02*
Y506521D01*
X452120Y556260D02*
X501859Y506521D01*
X708660Y434340D02*
Y495970D01*
X501859Y454451D02*
X514350Y441960D01*
X495319Y431781D02*
X509880Y417220D01*
X495319Y431781D02*
Y487661D01*
X488779Y419271D02*
Y468801D01*
X625886Y391160D02*
X734060Y282986D01*
X488779Y419271D02*
X516890Y391160D01*
X625886D01*
X512470Y365100D02*
X625500D01*
X708660Y281940D01*
X481330Y396240D02*
X512470Y365100D01*
X481330Y396240D02*
Y450850D01*
X642430Y721339D02*
X660531Y739440D01*
X642430Y667830D02*
Y721339D01*
X528320Y607060D02*
X581660D01*
X660531Y739440D02*
X736110D01*
X581660Y607060D02*
X642430Y667830D01*
X663240Y732900D02*
X725945D01*
X648970Y664210D02*
Y718630D01*
X663240Y732900D01*
X528320Y581660D02*
X566420D01*
X725945Y732900D02*
X734945Y723900D01*
X735330D01*
X566420Y581660D02*
X648970Y664210D01*
X528320Y556260D02*
X529120Y557060D01*
X551069D01*
X668020Y674011D02*
Y721360D01*
X551069Y557060D02*
X668020Y674011D01*
X530425Y532965D02*
X536223D01*
X672706Y648970D02*
X905510D01*
X673818Y670560D02*
X895350D01*
X536223Y532965D02*
X673818Y670560D01*
X528320Y530860D02*
X530425Y532965D01*
X750380Y725170D02*
X797560D01*
X736110Y739440D02*
X750380Y725170D01*
X1034940Y741790D02*
X1043940Y732790D01*
X974090Y749300D02*
X1074420D01*
X895350Y670560D02*
X974090Y749300D01*
X905510Y648970D02*
X986790Y730250D01*
X1074420Y749300D02*
X1092200Y731520D01*
X1210310Y502320D02*
X1221740Y490890D01*
X1092200Y629920D02*
X1210200Y511920D01*
X1210310Y502320D02*
Y507900D01*
X1210200Y508009D02*
Y511920D01*
Y508009D02*
X1210310Y507900D01*
X1043940Y631190D02*
X1161940Y513190D01*
X1162050Y502920D02*
Y508499D01*
Y502920D02*
X1173480Y491490D01*
X1161940Y508610D02*
Y513190D01*
Y508610D02*
X1162050Y508499D01*
X452120Y480060D02*
X481330Y450850D01*
X732790Y387350D02*
Y433070D01*
Y387350D02*
X760730Y359410D01*
X1022350D01*
X1106170Y433070D02*
X1120140Y447040D01*
X986790Y628650D02*
X1124920Y490520D01*
X1137620D02*
X1137920Y490220D01*
Y516220D02*
X1149460Y504680D01*
Y484891D02*
Y504680D01*
X1124920Y490520D02*
X1137620D01*
X830580Y262890D02*
X1189990D01*
X1115060Y297180D02*
X1131570Y280670D01*
X784860Y434340D02*
Y437382D01*
X781050Y441191D02*
Y495970D01*
X866140Y297180D02*
X1115060D01*
X810260Y434340D02*
X839470Y463550D01*
X781050Y441191D02*
X784860Y437382D01*
X816610Y276860D02*
X830580Y262890D01*
X1207770Y433070D02*
X1221740Y447040D01*
X1129155Y475876D02*
X1140445D01*
X1149460Y484891D01*
X1221740Y447040D02*
Y464890D01*
X1120140Y466861D02*
X1129155Y475876D01*
X1120140Y447040D02*
Y466861D01*
X668020Y562610D02*
Y619760D01*
Y562610D02*
X708660Y521970D01*
X768350Y534670D02*
Y589280D01*
X797560Y623570D02*
X826770Y594360D01*
X1173480Y443442D02*
X1182370Y434552D01*
X1173480Y443442D02*
Y465490D01*
X768350Y534670D02*
X781050Y521970D01*
X735330Y622300D02*
X768350Y589280D01*
X826770Y534670D02*
Y594360D01*
Y534670D02*
X839470Y521970D01*
X734060Y281940D02*
Y282986D01*
X839470Y463550D02*
Y495970D01*
X1189990Y262890D02*
X1207770Y280670D01*
X1182370Y433070D02*
Y434552D01*
X1823720Y767080D02*
Y768350D01*
X1826260Y770890D01*
X440143Y263240D02*
X791560D01*
X810260Y281940D01*
X747300Y269780D02*
X759460Y281940D01*
X683424Y269780D02*
X747300D01*
X452120Y530860D02*
X495319Y487661D01*
X452120Y505460D02*
X488779Y468801D01*
D27*
X1233170Y434340D02*
D03*
X1207770D02*
D03*
X1182370D02*
D03*
X1156970D02*
D03*
X1131570D02*
D03*
X1106170D02*
D03*
X1233170Y281940D02*
D03*
X1207770D02*
D03*
X1182370D02*
D03*
X1156970D02*
D03*
X1131570D02*
D03*
X1106170D02*
D03*
X835660Y434340D02*
D03*
X810260D02*
D03*
X784860D02*
D03*
X759460D02*
D03*
X734060D02*
D03*
X708660D02*
D03*
X835660Y281940D02*
D03*
X810260D02*
D03*
X784860D02*
D03*
X759460D02*
D03*
X734060D02*
D03*
X708660D02*
D03*
D28*
X517840Y845340D02*
D03*
Y785340D02*
D03*
X477840D02*
D03*
Y845340D02*
D03*
X583250D02*
D03*
Y785340D02*
D03*
X623250D02*
D03*
Y845340D02*
D03*
D29*
X528320Y276860D02*
D03*
Y302260D02*
D03*
Y327660D02*
D03*
Y353060D02*
D03*
Y378460D02*
D03*
Y403860D02*
D03*
Y429260D02*
D03*
Y454660D02*
D03*
Y480060D02*
D03*
Y505460D02*
D03*
Y530860D02*
D03*
Y556260D02*
D03*
Y581660D02*
D03*
Y607060D02*
D03*
X452120Y276860D02*
D03*
Y302260D02*
D03*
Y327660D02*
D03*
Y353060D02*
D03*
Y378460D02*
D03*
Y403860D02*
D03*
Y429260D02*
D03*
Y454660D02*
D03*
Y480060D02*
D03*
Y505460D02*
D03*
Y530860D02*
D03*
Y556260D02*
D03*
Y581660D02*
D03*
D30*
Y607060D02*
D03*
D31*
X1223010Y875030D02*
D03*
Y773430D02*
D03*
X1221740Y464890D02*
D03*
Y490890D02*
D03*
X986790Y628650D02*
D03*
Y730250D02*
D03*
X1043940Y631190D02*
D03*
Y732790D02*
D03*
X1092200Y629920D02*
D03*
Y731520D02*
D03*
X668020Y619760D02*
D03*
Y721360D02*
D03*
X735330Y622300D02*
D03*
Y723900D02*
D03*
X797560Y623570D02*
D03*
Y725170D02*
D03*
X1008888Y773430D02*
D03*
Y875030D02*
D03*
X937514Y773430D02*
D03*
Y875030D02*
D03*
X866140Y773430D02*
D03*
Y875030D02*
D03*
X1151636Y773430D02*
D03*
Y875030D02*
D03*
X1080262Y773430D02*
D03*
Y875030D02*
D03*
X839470Y521970D02*
D03*
Y495970D02*
D03*
X781050Y521970D02*
D03*
Y495970D02*
D03*
X708660Y521970D02*
D03*
Y495970D02*
D03*
X1173480Y491490D02*
D03*
Y465490D02*
D03*
X1137920Y490220D02*
D03*
Y516220D02*
D03*
D32*
X1221740Y516890D02*
D03*
X839470Y547970D02*
D03*
X781050D02*
D03*
X708660D02*
D03*
X1173480Y517490D02*
D03*
X1137920Y464220D02*
D03*
D33*
X729739Y866140D02*
D03*
X615950Y340360D02*
D03*
X727710Y373380D02*
D03*
X1022350Y359410D02*
D03*
X866140Y297180D02*
D03*
M02*
