G04*
G04 #@! TF.GenerationSoftware,Altium Limited,Altium Designer,24.10.1 (45)*
G04*
G04 Layer_Color=2752767*
%FSLAX44Y44*%
%MOMM*%
G71*
G04*
G04 #@! TF.SameCoordinates,C5BE6EB9-D647-4441-8654-D56C766D6CB2*
G04*
G04*
G04 #@! TF.FilePolarity,Positive*
G04*
G01*
G75*
%ADD36C,0.1270*%
%ADD37C,0.1693*%
D36*
X1228090Y429260D02*
Y439420D01*
X1238250D01*
Y429260D01*
X1228090D01*
X1202690D02*
Y439420D01*
X1212850D01*
Y429260D01*
X1202690D01*
X1177290D02*
Y439420D01*
X1187450D01*
Y429260D01*
X1177290D01*
X1151890D02*
Y439420D01*
X1162050D01*
Y429260D01*
X1151890D01*
X1126490D02*
Y439420D01*
X1136650D01*
Y429260D01*
X1126490D01*
X1101090D02*
Y439420D01*
X1111250D01*
Y429260D01*
X1101090D01*
X1228090Y276860D02*
Y287020D01*
X1238250D01*
Y276860D01*
X1228090D01*
X1202690D02*
Y287020D01*
X1212850D01*
Y276860D01*
X1202690D01*
X1177290D02*
Y287020D01*
X1187450D01*
Y276860D01*
X1177290D01*
X1151890D02*
Y287020D01*
X1162050D01*
Y276860D01*
X1151890D01*
X1126490D02*
Y287020D01*
X1136650D01*
Y276860D01*
X1126490D01*
X1101090D02*
Y287020D01*
X1111250D01*
Y276860D01*
X1101090D01*
X687050Y869466D02*
X689590Y872006D01*
X692130D01*
X689590Y874546D01*
X692130Y877086D01*
X689590D01*
X687050Y879626D01*
X684510Y877086D01*
X681970D01*
X684510Y874546D01*
X681970Y872006D01*
X684510D01*
X687050Y869466D01*
X773450D02*
X775990Y872006D01*
X778530D01*
X775990Y874546D01*
X778530Y877086D01*
X775990D01*
X773450Y879626D01*
X770910Y877086D01*
X768370D01*
X770910Y874546D01*
X768370Y872006D01*
X770910D01*
X773450Y869466D01*
X687050Y831466D02*
X689590Y834006D01*
X692130D01*
X689590Y836546D01*
X692130Y839086D01*
X689590D01*
X687050Y841626D01*
X684510Y839086D01*
X681970D01*
X684510Y836546D01*
X681970Y834006D01*
X684510D01*
X687050Y831466D01*
X773450D02*
X775990Y834006D01*
X778530D01*
X775990Y836546D01*
X778530Y839086D01*
X775990D01*
X773450Y841626D01*
X770910Y839086D01*
X768370D01*
X770910Y836546D01*
X768370Y834006D01*
X770910D01*
X773450Y831466D01*
X830580Y429260D02*
Y439420D01*
X840740D01*
Y429260D01*
X830580D01*
X805180D02*
Y439420D01*
X815340D01*
Y429260D01*
X805180D01*
X779780D02*
Y439420D01*
X789940D01*
Y429260D01*
X779780D01*
X754380D02*
Y439420D01*
X764540D01*
Y429260D01*
X754380D01*
X728980D02*
Y439420D01*
X739140D01*
Y429260D01*
X728980D01*
X703580D02*
Y439420D01*
X713740D01*
Y429260D01*
X703580D01*
X830580Y276860D02*
Y287020D01*
X840740D01*
Y276860D01*
X830580D01*
X805180D02*
Y287020D01*
X815340D01*
Y276860D01*
X805180D01*
X779780D02*
Y287020D01*
X789940D01*
Y276860D01*
X779780D01*
X754380D02*
Y287020D01*
X764540D01*
Y276860D01*
X754380D01*
X728980D02*
Y287020D01*
X739140D01*
Y276860D01*
X728980D01*
X703580D02*
Y287020D01*
X713740D01*
Y276860D01*
X703580D01*
X523240Y271780D02*
X525780Y276860D01*
X523240Y281940D01*
X528320Y279400D01*
X533400Y281940D01*
X530860Y276860D01*
X533400Y271780D01*
X528320Y274320D01*
X523240Y271780D01*
Y297180D02*
X525780Y302260D01*
X523240Y307340D01*
X528320Y304800D01*
X533400Y307340D01*
X530860Y302260D01*
X533400Y297180D01*
X528320Y299720D01*
X523240Y297180D01*
Y322580D02*
X525780Y327660D01*
X523240Y332740D01*
X528320Y330200D01*
X533400Y332740D01*
X530860Y327660D01*
X533400Y322580D01*
X528320Y325120D01*
X523240Y322580D01*
Y347980D02*
X525780Y353060D01*
X523240Y358140D01*
X528320Y355600D01*
X533400Y358140D01*
X530860Y353060D01*
X533400Y347980D01*
X528320Y350520D01*
X523240Y347980D01*
Y373380D02*
X525780Y378460D01*
X523240Y383540D01*
X528320Y381000D01*
X533400Y383540D01*
X530860Y378460D01*
X533400Y373380D01*
X528320Y375920D01*
X523240Y373380D01*
Y398780D02*
X525780Y403860D01*
X523240Y408940D01*
X528320Y406400D01*
X533400Y408940D01*
X530860Y403860D01*
X533400Y398780D01*
X528320Y401320D01*
X523240Y398780D01*
Y424180D02*
X525780Y429260D01*
X523240Y434340D01*
X528320Y431800D01*
X533400Y434340D01*
X530860Y429260D01*
X533400Y424180D01*
X528320Y426720D01*
X523240Y424180D01*
Y449580D02*
X525780Y454660D01*
X523240Y459740D01*
X528320Y457200D01*
X533400Y459740D01*
X530860Y454660D01*
X533400Y449580D01*
X528320Y452120D01*
X523240Y449580D01*
Y474980D02*
X525780Y480060D01*
X523240Y485140D01*
X528320Y482600D01*
X533400Y485140D01*
X530860Y480060D01*
X533400Y474980D01*
X528320Y477520D01*
X523240Y474980D01*
Y500380D02*
X525780Y505460D01*
X523240Y510540D01*
X528320Y508000D01*
X533400Y510540D01*
X530860Y505460D01*
X533400Y500380D01*
X528320Y502920D01*
X523240Y500380D01*
Y525780D02*
X525780Y530860D01*
X523240Y535940D01*
X528320Y533400D01*
X533400Y535940D01*
X530860Y530860D01*
X533400Y525780D01*
X528320Y528320D01*
X523240Y525780D01*
Y551180D02*
X525780Y556260D01*
X523240Y561340D01*
X528320Y558800D01*
X533400Y561340D01*
X530860Y556260D01*
X533400Y551180D01*
X528320Y553720D01*
X523240Y551180D01*
Y576580D02*
X525780Y581660D01*
X523240Y586740D01*
X528320Y584200D01*
X533400Y586740D01*
X530860Y581660D01*
X533400Y576580D01*
X528320Y579120D01*
X523240Y576580D01*
Y601980D02*
X525780Y607060D01*
X523240Y612140D01*
X528320Y609600D01*
X533400Y612140D01*
X530860Y607060D01*
X533400Y601980D01*
X528320Y604520D01*
X523240Y601980D01*
X447040Y271780D02*
X449580Y276860D01*
X447040Y281940D01*
X452120Y279400D01*
X457200Y281940D01*
X454660Y276860D01*
X457200Y271780D01*
X452120Y274320D01*
X447040Y271780D01*
Y297180D02*
X449580Y302260D01*
X447040Y307340D01*
X452120Y304800D01*
X457200Y307340D01*
X454660Y302260D01*
X457200Y297180D01*
X452120Y299720D01*
X447040Y297180D01*
Y322580D02*
X449580Y327660D01*
X447040Y332740D01*
X452120Y330200D01*
X457200Y332740D01*
X454660Y327660D01*
X457200Y322580D01*
X452120Y325120D01*
X447040Y322580D01*
Y347980D02*
X449580Y353060D01*
X447040Y358140D01*
X452120Y355600D01*
X457200Y358140D01*
X454660Y353060D01*
X457200Y347980D01*
X452120Y350520D01*
X447040Y347980D01*
Y373380D02*
X449580Y378460D01*
X447040Y383540D01*
X452120Y381000D01*
X457200Y383540D01*
X454660Y378460D01*
X457200Y373380D01*
X452120Y375920D01*
X447040Y373380D01*
Y398780D02*
X449580Y403860D01*
X447040Y408940D01*
X452120Y406400D01*
X457200Y408940D01*
X454660Y403860D01*
X457200Y398780D01*
X452120Y401320D01*
X447040Y398780D01*
Y424180D02*
X449580Y429260D01*
X447040Y434340D01*
X452120Y431800D01*
X457200Y434340D01*
X454660Y429260D01*
X457200Y424180D01*
X452120Y426720D01*
X447040Y424180D01*
Y449580D02*
X449580Y454660D01*
X447040Y459740D01*
X452120Y457200D01*
X457200Y459740D01*
X454660Y454660D01*
X457200Y449580D01*
X452120Y452120D01*
X447040Y449580D01*
Y474980D02*
X449580Y480060D01*
X447040Y485140D01*
X452120Y482600D01*
X457200Y485140D01*
X454660Y480060D01*
X457200Y474980D01*
X452120Y477520D01*
X447040Y474980D01*
Y500380D02*
X449580Y505460D01*
X447040Y510540D01*
X452120Y508000D01*
X457200Y510540D01*
X454660Y505460D01*
X457200Y500380D01*
X452120Y502920D01*
X447040Y500380D01*
Y525780D02*
X449580Y530860D01*
X447040Y535940D01*
X452120Y533400D01*
X457200Y535940D01*
X454660Y530860D01*
X457200Y525780D01*
X452120Y528320D01*
X447040Y525780D01*
Y551180D02*
X449580Y556260D01*
X447040Y561340D01*
X452120Y558800D01*
X457200Y561340D01*
X454660Y556260D01*
X457200Y551180D01*
X452120Y553720D01*
X447040Y551180D01*
Y576580D02*
X449580Y581660D01*
X447040Y586740D01*
X452120Y584200D01*
X457200Y586740D01*
X454660Y581660D01*
X457200Y576580D01*
X452120Y579120D01*
X447040Y576580D01*
Y601980D02*
X449580Y607060D01*
X447040Y612140D01*
X452120Y609600D01*
X457200Y612140D01*
X454660Y607060D01*
X457200Y601980D01*
X452120Y604520D01*
X447040Y601980D01*
X1223010Y869950D02*
X1217930Y880110D01*
X1228090D01*
X1223010Y869950D01*
Y768350D02*
X1217930Y778510D01*
X1228090D01*
X1223010Y768350D01*
X1216660Y511810D02*
X1219200Y516890D01*
X1216660Y521970D01*
X1221740Y519430D01*
X1226820Y521970D01*
X1224280Y516890D01*
X1226820Y511810D01*
X1221740Y514350D01*
X1216660Y511810D01*
Y459810D02*
X1219200Y464890D01*
X1216660Y469970D01*
X1221740Y467430D01*
X1226820Y469970D01*
X1224280Y464890D01*
X1226820Y459810D01*
X1221740Y462350D01*
X1216660Y459810D01*
Y485810D02*
X1219200Y490890D01*
X1216660Y495970D01*
X1221740Y493430D01*
X1226820Y495970D01*
X1224280Y490890D01*
X1226820Y485810D01*
X1221740Y488350D01*
X1216660Y485810D01*
X986790Y623570D02*
X981710Y633730D01*
X991870D01*
X986790Y623570D01*
Y725170D02*
X981710Y735330D01*
X991870D01*
X986790Y725170D01*
X1043940Y626110D02*
X1038860Y636270D01*
X1049020D01*
X1043940Y626110D01*
Y727710D02*
X1038860Y737870D01*
X1049020D01*
X1043940Y727710D01*
X1092200Y624840D02*
X1087120Y635000D01*
X1097280D01*
X1092200Y624840D01*
Y726440D02*
X1087120Y736600D01*
X1097280D01*
X1092200Y726440D01*
X668020Y614680D02*
X662940Y624840D01*
X673100D01*
X668020Y614680D01*
Y716280D02*
X662940Y726440D01*
X673100D01*
X668020Y716280D01*
X735330Y617220D02*
X730250Y627380D01*
X740410D01*
X735330Y617220D01*
Y718820D02*
X730250Y728980D01*
X740410D01*
X735330Y718820D01*
X797560Y618490D02*
X792480Y628650D01*
X802640D01*
X797560Y618490D01*
Y720090D02*
X792480Y730250D01*
X802640D01*
X797560Y720090D01*
X1008888Y768350D02*
X1003808Y778510D01*
X1013968D01*
X1008888Y768350D01*
Y869950D02*
X1003808Y880110D01*
X1013968D01*
X1008888Y869950D01*
X937514Y768350D02*
X932434Y778510D01*
X942594D01*
X937514Y768350D01*
Y869950D02*
X932434Y880110D01*
X942594D01*
X937514Y869950D01*
X866140Y768350D02*
X861060Y778510D01*
X871220D01*
X866140Y768350D01*
Y869950D02*
X861060Y880110D01*
X871220D01*
X866140Y869950D01*
X1151636Y768350D02*
X1146556Y778510D01*
X1156716D01*
X1151636Y768350D01*
Y869950D02*
X1146556Y880110D01*
X1156716D01*
X1151636Y869950D01*
X1080262Y768350D02*
X1075182Y778510D01*
X1085342D01*
X1080262Y768350D01*
Y869950D02*
X1075182Y880110D01*
X1085342D01*
X1080262Y869950D01*
X834390Y516890D02*
X836930Y521970D01*
X834390Y527050D01*
X839470Y524510D01*
X844550Y527050D01*
X842010Y521970D01*
X844550Y516890D01*
X839470Y519430D01*
X834390Y516890D01*
Y490890D02*
X836930Y495970D01*
X834390Y501050D01*
X839470Y498510D01*
X844550Y501050D01*
X842010Y495970D01*
X844550Y490890D01*
X839470Y493430D01*
X834390Y490890D01*
Y542890D02*
X836930Y547970D01*
X834390Y553050D01*
X839470Y550510D01*
X844550Y553050D01*
X842010Y547970D01*
X844550Y542890D01*
X839470Y545430D01*
X834390Y542890D01*
X775970Y516890D02*
X778510Y521970D01*
X775970Y527050D01*
X781050Y524510D01*
X786130Y527050D01*
X783590Y521970D01*
X786130Y516890D01*
X781050Y519430D01*
X775970Y516890D01*
Y490890D02*
X778510Y495970D01*
X775970Y501050D01*
X781050Y498510D01*
X786130Y501050D01*
X783590Y495970D01*
X786130Y490890D01*
X781050Y493430D01*
X775970Y490890D01*
Y542890D02*
X778510Y547970D01*
X775970Y553050D01*
X781050Y550510D01*
X786130Y553050D01*
X783590Y547970D01*
X786130Y542890D01*
X781050Y545430D01*
X775970Y542890D01*
X703580Y516890D02*
X706120Y521970D01*
X703580Y527050D01*
X708660Y524510D01*
X713740Y527050D01*
X711200Y521970D01*
X713740Y516890D01*
X708660Y519430D01*
X703580Y516890D01*
Y490890D02*
X706120Y495970D01*
X703580Y501050D01*
X708660Y498510D01*
X713740Y501050D01*
X711200Y495970D01*
X713740Y490890D01*
X708660Y493430D01*
X703580Y490890D01*
Y542890D02*
X706120Y547970D01*
X703580Y553050D01*
X708660Y550510D01*
X713740Y553050D01*
X711200Y547970D01*
X713740Y542890D01*
X708660Y545430D01*
X703580Y542890D01*
X1168400Y486410D02*
X1170940Y491490D01*
X1168400Y496570D01*
X1173480Y494030D01*
X1178560Y496570D01*
X1176020Y491490D01*
X1178560Y486410D01*
X1173480Y488950D01*
X1168400Y486410D01*
Y460410D02*
X1170940Y465490D01*
X1168400Y470570D01*
X1173480Y468030D01*
X1178560Y470570D01*
X1176020Y465490D01*
X1178560Y460410D01*
X1173480Y462950D01*
X1168400Y460410D01*
Y512410D02*
X1170940Y517490D01*
X1168400Y522570D01*
X1173480Y520030D01*
X1178560Y522570D01*
X1176020Y517490D01*
X1178560Y512410D01*
X1173480Y514950D01*
X1168400Y512410D01*
X1132840Y485140D02*
X1135380Y490220D01*
X1132840Y495300D01*
X1137920Y492760D01*
X1143000Y495300D01*
X1140460Y490220D01*
X1143000Y485140D01*
X1137920Y487680D01*
X1132840Y485140D01*
Y511140D02*
X1135380Y516220D01*
X1132840Y521300D01*
X1137920Y518760D01*
X1143000Y521300D01*
X1140460Y516220D01*
X1143000Y511140D01*
X1137920Y513680D01*
X1132840Y511140D01*
Y459140D02*
X1135380Y464220D01*
X1132840Y469300D01*
X1137920Y466760D01*
X1143000Y469300D01*
X1140460Y464220D01*
X1143000Y459140D01*
X1137920Y461680D01*
X1132840Y459140D01*
X727199Y863600D02*
Y861060D01*
X732279D01*
Y863600D01*
X734819D01*
Y868680D01*
X732279D01*
Y871220D01*
X727199D01*
Y868680D01*
X724659D01*
Y863600D01*
X727199D01*
X613410Y337820D02*
Y335280D01*
X618490D01*
Y337820D01*
X621030D01*
Y342900D01*
X618490D01*
Y345440D01*
X613410D01*
Y342900D01*
X610870D01*
Y337820D01*
X613410D01*
X725170Y370840D02*
Y368300D01*
X730250D01*
Y370840D01*
X732790D01*
Y375920D01*
X730250D01*
Y378460D01*
X725170D01*
Y375920D01*
X722630D01*
Y370840D01*
X725170D01*
X1019810Y356870D02*
Y354330D01*
X1024890D01*
Y356870D01*
X1027430D01*
Y361950D01*
X1024890D01*
Y364490D01*
X1019810D01*
Y361950D01*
X1017270D01*
Y356870D01*
X1019810D01*
X863600Y294640D02*
Y292100D01*
X868680D01*
Y294640D01*
X871220D01*
Y299720D01*
X868680D01*
Y302260D01*
X863600D01*
Y299720D01*
X861060D01*
Y294640D01*
X863600D01*
D37*
X522920Y845340D02*
G03*
X522920Y845340I-5080J0D01*
G01*
Y785340D02*
G03*
X522920Y785340I-5080J0D01*
G01*
X482920D02*
G03*
X482920Y785340I-5080J0D01*
G01*
Y845340D02*
G03*
X482920Y845340I-5080J0D01*
G01*
X588330D02*
G03*
X588330Y845340I-5080J0D01*
G01*
Y785340D02*
G03*
X588330Y785340I-5080J0D01*
G01*
X628330D02*
G03*
X628330Y785340I-5080J0D01*
G01*
Y845340D02*
G03*
X628330Y845340I-5080J0D01*
G01*
M02*
