G04*
G04 #@! TF.GenerationSoftware,Altium Limited,Altium Designer,24.10.1 (45)*
G04*
G04 Layer_Color=255*
%FSLAX44Y44*%
%MOMM*%
G71*
G04*
G04 #@! TF.SameCoordinates,C5BE6EB9-D647-4441-8654-D56C766D6CB2*
G04*
G04*
G04 #@! TF.FilePolarity,Positive*
G04*
G01*
G75*
%ADD14R,0.7000X1.2000*%
%ADD15R,0.7600X1.2000*%
%ADD16R,0.8000X1.2000*%
G04:AMPARAMS|DCode=19|XSize=1.1mm|YSize=1.7mm|CornerRadius=0.55mm|HoleSize=0mm|Usage=FLASHONLY|Rotation=180.000|XOffset=0mm|YOffset=0mm|HoleType=Round|Shape=RoundedRectangle|*
%AMROUNDEDRECTD19*
21,1,1.1000,0.6000,0,0,180.0*
21,1,0.0000,1.7000,0,0,180.0*
1,1,1.1000,0.0000,0.3000*
1,1,1.1000,0.0000,0.3000*
1,1,1.1000,0.0000,-0.3000*
1,1,1.1000,0.0000,-0.3000*
%
%ADD19ROUNDEDRECTD19*%
%ADD27C,1.5240*%
%ADD28C,2.0000*%
%ADD29C,1.5000*%
%ADD30R,1.5000X1.5000*%
%ADD31C,1.4000*%
%ADD32R,1.4000X1.4000*%
D14*
X725250Y836546D02*
D03*
X735250D02*
D03*
D15*
X715050D02*
D03*
X745450D02*
D03*
D16*
X702750D02*
D03*
X757750D02*
D03*
D19*
X687050Y874546D02*
D03*
X773450D02*
D03*
X687050Y836546D02*
D03*
X773450D02*
D03*
D27*
X1233170Y434340D02*
D03*
X1207770D02*
D03*
X1182370D02*
D03*
X1156970D02*
D03*
X1131570D02*
D03*
X1106170D02*
D03*
X1233170Y281940D02*
D03*
X1207770D02*
D03*
X1182370D02*
D03*
X1156970D02*
D03*
X1131570D02*
D03*
X1106170D02*
D03*
X835660Y434340D02*
D03*
X810260D02*
D03*
X784860D02*
D03*
X759460D02*
D03*
X734060D02*
D03*
X708660D02*
D03*
X835660Y281940D02*
D03*
X810260D02*
D03*
X784860D02*
D03*
X759460D02*
D03*
X734060D02*
D03*
X708660D02*
D03*
D28*
X517840Y845340D02*
D03*
Y785340D02*
D03*
X477840D02*
D03*
Y845340D02*
D03*
X583250D02*
D03*
Y785340D02*
D03*
X623250D02*
D03*
Y845340D02*
D03*
D29*
X528320Y276860D02*
D03*
Y302260D02*
D03*
Y327660D02*
D03*
Y353060D02*
D03*
Y378460D02*
D03*
Y403860D02*
D03*
Y429260D02*
D03*
Y454660D02*
D03*
Y480060D02*
D03*
Y505460D02*
D03*
Y530860D02*
D03*
Y556260D02*
D03*
Y581660D02*
D03*
Y607060D02*
D03*
X452120Y276860D02*
D03*
Y302260D02*
D03*
Y327660D02*
D03*
Y353060D02*
D03*
Y378460D02*
D03*
Y403860D02*
D03*
Y429260D02*
D03*
Y454660D02*
D03*
Y480060D02*
D03*
Y505460D02*
D03*
Y530860D02*
D03*
Y556260D02*
D03*
Y581660D02*
D03*
D30*
Y607060D02*
D03*
D31*
X1223010Y875030D02*
D03*
Y773430D02*
D03*
X1221740Y464890D02*
D03*
Y490890D02*
D03*
X986790Y628650D02*
D03*
Y730250D02*
D03*
X1043940Y631190D02*
D03*
Y732790D02*
D03*
X1092200Y629920D02*
D03*
Y731520D02*
D03*
X668020Y619760D02*
D03*
Y721360D02*
D03*
X735330Y622300D02*
D03*
Y723900D02*
D03*
X797560Y623570D02*
D03*
Y725170D02*
D03*
X1008888Y773430D02*
D03*
Y875030D02*
D03*
X937514Y773430D02*
D03*
Y875030D02*
D03*
X866140Y773430D02*
D03*
Y875030D02*
D03*
X1151636Y773430D02*
D03*
Y875030D02*
D03*
X1080262Y773430D02*
D03*
Y875030D02*
D03*
X839470Y521970D02*
D03*
Y495970D02*
D03*
X781050Y521970D02*
D03*
Y495970D02*
D03*
X708660Y521970D02*
D03*
Y495970D02*
D03*
X1173480Y491490D02*
D03*
Y465490D02*
D03*
X1137920Y490220D02*
D03*
Y516220D02*
D03*
D32*
X1221740Y516890D02*
D03*
X839470Y547970D02*
D03*
X781050D02*
D03*
X708660D02*
D03*
X1173480Y517490D02*
D03*
X1137920Y464220D02*
D03*
M02*
